<svg xmlns="http://www.w3.org/2000/svg" xmlns:xlink="http://www.w3.org/1999/xlink" version="1.1" x="0px" y="0px" viewBox="0 0 100 100" enable-background="new 0 0 100 100" xml:space="preserve"><path d="M76.509,92.632c-2.197-0.407-4.389-0.85-6.592-1.215C59.29,89.66,48.662,87.92,38.032,86.179  c-8.29-1.358-16.581-2.707-24.871-4.062c-0.198-0.032-0.389-0.098-0.672-0.17c2.406-14.675,4.804-29.304,7.192-43.876  c0.246-0.051,0.328-0.094,0.401-0.08c1.839,0.326,4.056,0.145,5.406,1.138c1.302,0.96,1.718,3.132,2.502,4.781  c0.875,1.839,1.746,3.682,2.583,5.54c0.331,0.736,0.732,1.158,1.632,1.25c1.763,0.179,3.508,0.549,5.521,0.882  c-1.857-3.903-3.615-7.599-5.495-11.552c1.569,0.231,2.924,0.566,4.286,0.603c2.197,0.059,3.35,1.119,4.133,3.136  c1.065,2.747,2.469,5.362,3.702,8.044c0.301,0.657,0.67,1.021,1.462,1.114c1.801,0.209,3.587,0.565,5.635,0.904  c-1.861-3.912-3.622-7.608-5.499-11.553c1.515,0.224,2.827,0.531,4.152,0.59c2.172,0.097,3.475,0.988,4.269,3.133  c1.02,2.76,2.467,5.36,3.694,8.044c0.326,0.713,0.743,1.051,1.572,1.143c1.765,0.195,3.511,0.555,5.533,0.891  c-1.863-3.92-3.619-7.614-5.512-11.594c2.453,0.407,4.68,0.746,6.888,1.182c0.288,0.057,0.534,0.585,0.702,0.941  c1.535,3.23,3.063,6.464,4.56,9.712c0.306,0.664,0.675,1.017,1.46,1.108c1.806,0.211,3.594,0.56,5.624,0.891  c-1.866-3.92-3.625-7.618-5.501-11.562c2.047,0.316,3.872,0.599,5.697,0.881c0.037-0.069,0.073-0.138,0.11-0.206  c-1.556-0.951-3.111-1.901-4.864-2.972c1.323-0.603,2.475-1.127,3.626-1.652c2.346-1.071,4.708-2.109,7.029-3.231  c0.764-0.37,1.352-0.361,2.05,0.117c0.783,0.537,1.646,0.954,2.475,1.424c0,0.083,0,0.167,0,0.25  c-1.686,2.761-3.379,5.518-5.049,8.29c-0.162,0.269-0.198,0.625-0.25,0.947c-1.49,9.013-2.972,18.027-4.46,27.04  c-0.825,4.997-1.662,9.995-2.495,14.991C77.01,92.632,76.76,92.632,76.509,92.632z M77.876,62.281  c-18.855-3.089-37.531-6.149-56.265-9.218c-0.218,1.376-0.405,2.549-0.609,3.831c18.781,3.077,37.466,6.14,56.237,9.216  C77.452,64.828,77.648,63.652,77.876,62.281z M73.688,87.677c0.196-1.061,0.334-1.962,0.536-2.849c0.168-0.74-0.091-1.043-0.83-1.16  c-4.722-0.748-9.44-1.526-14.159-2.299c-10.464-1.711-20.928-3.424-31.392-5.136c-3.228-0.528-6.458-1.054-9.764-1.594  c-0.209,1.32-0.401,2.53-0.606,3.825C36.257,81.544,54.916,84.601,73.688,87.677z"/><path d="M27.738,16.463c1.826-3.034,3.619-6.013,5.476-9.098c3.761,2.258,7.45,4.473,11.34,6.809  c-0.672,0.319-1.163,0.559-1.661,0.787c-3.022,1.384-6.054,2.75-9.063,4.159c-0.664,0.312-1.188,0.353-1.837-0.073  C30.642,18.159,29.23,17.361,27.738,16.463z"/><path d="M62.407,37.289c3.837-1.75,7.428-3.398,11.032-5.015c0.304-0.138,0.786-0.222,1.04-0.078  c1.905,1.09,3.775,2.246,5.843,3.493c-3.31,1.516-6.477,2.851-9.528,4.411c-1.598,0.817-2.854,0.822-4.288-0.284  C65.301,38.889,63.911,38.202,62.407,37.289z"/><path d="M56.502,21.359c-3.923,1.788-7.573,3.465-11.242,5.1c-0.277,0.123-0.748,0.056-1.026-0.104  c-1.834-1.057-3.638-2.163-5.656-3.376c1.504-0.692,2.833-1.305,4.163-1.916c2.265-1.039,4.525-2.09,6.805-3.095  c0.331-0.146,0.849-0.233,1.127-0.076C52.551,18.955,54.388,20.089,56.502,21.359z"/><path d="M68.414,28.524c-2.925,1.336-5.795,2.379-8.382,3.904c-2.47,1.456-4.469,1.282-6.584-0.48  c-0.814-0.678-1.82-1.124-2.914-1.781c0.603-0.304,1.024-0.533,1.459-0.732c3.061-1.399,6.136-2.769,9.18-4.203  c0.713-0.335,1.244-0.373,1.939,0.08C64.78,26.4,66.516,27.384,68.414,28.524z"/></svg>
