<svg xmlns="http://www.w3.org/2000/svg" xmlns:xlink="http://www.w3.org/1999/xlink" version="1.1" x="0px" y="0px" viewBox="0 0 100 100" enable-background="new 0 0 100 100" xml:space="preserve"><path fill="#000000" d="M98.42,37.387l-0.034,0.001c0.124-1.606,0.069-3.237-0.219-4.865  c-1.626-9.225-9.597-15.92-18.95-15.92c-1.12,0-2.253,0.1-3.365,0.295c-2.548,0.449-4.885,1.39-6.945,2.696H31.094  c-2.061-1.306-4.398-2.247-6.946-2.696c-1.112-0.195-2.245-0.295-3.365-0.295c-9.354,0-17.324,6.695-18.95,15.92  c-0.289,1.628-0.343,3.258-0.22,4.865l-0.033-0.001c-0.013,0.323-1.328,32.312-1.57,36.358c-0.249,4.15,3.865,7.735,10.476,9.136  c1.574,0.332,3.207,0.517,4.793,0.517c4.481,0,8.597-1.459,9.959-5.103c0.479-1.283,5.84-15.39,9.538-25.113h30.446  c3.698,9.724,9.06,23.83,9.538,25.113c1.362,3.646,5.479,5.103,9.96,5.103c1.586,0,3.219-0.185,4.793-0.517  c6.611-1.4,10.725-4.985,10.476-9.136C99.747,69.698,98.433,37.709,98.42,37.387z M76.596,21.113c0.867-0.152,1.747-0.23,2.621-0.23  c7.271,0,13.47,5.208,14.736,12.383c0.693,3.941-0.187,7.918-2.481,11.195s-5.731,5.466-9.676,6.161  c-0.867,0.153-1.749,0.231-2.623,0.231c-7.27,0-13.465-5.209-14.731-12.384C63.01,30.334,68.461,22.548,76.596,21.113z   M6.047,33.267c1.267-7.175,7.464-12.383,14.736-12.383c0.874,0,1.753,0.078,2.621,0.23c8.135,1.435,13.586,9.221,12.154,17.356  c-1.267,7.176-7.462,12.385-14.731,12.385c-0.874,0-1.756-0.078-2.624-0.231c-3.944-0.695-7.38-2.884-9.675-6.161  S5.353,37.208,6.047,33.267z M21.23,76.797c-0.773,2.071-5.102,2.905-9.857,1.897c-4.08-0.865-7.194-2.927-7.09-4.692  c0.159-2.654,0.752-16.674,1.164-26.539c2.943,3.904,7.171,6.523,12.012,7.375c1.112,0.196,2.245,0.295,3.368,0.295  c3.478,0,6.764-0.929,9.604-2.567C26.753,62.244,21.694,75.551,21.23,76.797z M36.403,48.9c1.114-2.93,1.85-4.865,1.869-4.914  c0.689-1.491,1.204-3.089,1.5-4.774c0.997-5.654-0.61-11.165-3.934-15.338h28.322c-3.323,4.173-4.931,9.684-3.934,15.339  c0.297,1.687,0.811,3.287,1.503,4.779c0.029,0.079,0.761,2,1.866,4.908H36.403z M88.627,78.694  c-4.753,1.008-9.084,0.172-9.857-1.897c-0.464-1.246-5.522-14.553-9.201-24.23c2.841,1.639,6.127,2.567,9.604,2.567  c1.123,0,2.256-0.099,3.367-0.295c4.841-0.853,9.069-3.472,12.013-7.375c0.412,9.865,1.006,23.881,1.164,26.537  C95.821,75.768,92.707,77.829,88.627,78.694z M67.426,35.868c0,2.361,1.921,4.281,4.281,4.281c2.359,0,4.28-1.92,4.28-4.281  s-1.921-4.281-4.28-4.281C69.347,31.587,67.426,33.507,67.426,35.868z M71.707,33.728c1.181,0,2.141,0.96,2.141,2.141  c0,1.18-0.96,2.14-2.141,2.14c-1.182,0-2.141-0.96-2.141-2.14C69.566,34.688,70.525,33.728,71.707,33.728z M86.689,40.149  c2.359,0,4.28-1.92,4.28-4.281s-1.921-4.281-4.28-4.281c-2.36,0-4.281,1.92-4.281,4.281S84.329,40.149,86.689,40.149z   M86.689,33.728c1.181,0,2.141,0.96,2.141,2.141c0,1.18-0.96,2.14-2.141,2.14s-2.141-0.96-2.141-2.14  C84.549,34.688,85.509,33.728,86.689,33.728z M79.198,39.079c-2.36,0-4.281,1.92-4.281,4.281s1.921,4.281,4.281,4.281  c2.359,0,4.28-1.92,4.28-4.281S81.558,39.079,79.198,39.079z M79.198,45.5c-1.181,0-2.141-0.96-2.141-2.141  c0-1.18,0.96-2.14,2.141-2.14s2.141,0.96,2.141,2.14C81.339,44.54,80.379,45.5,79.198,45.5z M79.198,32.658  c2.359,0,4.28-1.92,4.28-4.281s-1.921-4.281-4.28-4.281c-2.36,0-4.281,1.92-4.281,4.281S76.838,32.658,79.198,32.658z   M79.198,26.236c1.181,0,2.141,0.96,2.141,2.141c0,1.18-0.96,2.14-2.141,2.14s-2.141-0.96-2.141-2.14  C77.058,27.197,78.018,26.236,79.198,26.236z M48.93,33.177h-6.421c-0.592,0-1.07,0.479-1.07,1.07v4.281  c0,0.592,0.479,1.07,1.07,1.07h6.421c0.592,0,1.07-0.479,1.07-1.07v-4.281C50,33.656,49.521,33.177,48.93,33.177z M47.86,37.458  h-4.281v-2.14h4.281V37.458z M58.9,35.373l-6.422-2.14c-0.33-0.114-0.686-0.054-0.963,0.146c-0.28,0.202-0.445,0.524-0.445,0.868  v4.281c0,0.344,0.165,0.667,0.445,0.869c0.184,0.133,0.403,0.202,0.625,0.202c0.112,0,0.228-0.018,0.338-0.056l6.422-2.14  c0.437-0.146,0.731-0.554,0.731-1.015S59.337,35.518,58.9,35.373z M53.211,37.043v-1.311l1.967,0.655L53.211,37.043z M14.381,40.149  h2.14v2.14c0,1.771,1.44,3.211,3.211,3.211h2.14c1.771,0,3.21-1.44,3.21-3.211v-2.14h2.141c1.771,0,3.21-1.44,3.21-3.21v-2.141  c0-1.771-1.44-3.21-3.21-3.21h-2.141v-2.141c0-1.77-1.44-3.21-3.21-3.21h-2.14c-1.771,0-3.211,1.44-3.211,3.21v2.141h-2.14  c-1.771,0-3.21,1.44-3.21,3.21v2.141C11.17,38.708,12.61,40.149,14.381,40.149z M13.311,34.798c0-0.59,0.481-1.07,1.07-1.07h4.281  v-4.281c0-0.59,0.48-1.07,1.07-1.07h2.14c0.589,0,1.07,0.479,1.07,1.07v4.281h4.281c0.589,0,1.07,0.48,1.07,1.07v2.141  c0,0.59-0.48,1.07-1.07,1.07h-4.281v4.281c0,0.591-0.481,1.07-1.07,1.07h-2.14c-0.59,0-1.07-0.479-1.07-1.07v-4.281h-4.281  c-0.589,0-1.07-0.479-1.07-1.07V34.798z"/></svg>
