<?xml version="1.0" encoding="UTF-8" ?>
<!DOCTYPE svg PUBLIC "-//W3C//DTD SVG 1.1//EN" "http://www.w3.org/Graphics/SVG/1.1/DTD/svg11.dtd">
<svg width="1000pt" height="1000pt" viewBox="0 0 1000 1000" version="1.1" xmlns="http://www.w3.org/2000/svg">
<path fill="#cc5a98" d=" M 0.00 0.00 L 499.23 0.00 L 499.23 0.44 C 483.51 15.32 468.58 31.02 453.14 46.18 C 388.51 110.86 323.87 175.51 259.18 240.12 C 256.02 243.10 253.18 246.39 250.41 249.73 C 250.19 249.76 249.75 249.82 249.52 249.85 C 231.19 231.04 212.42 212.65 193.91 194.02 C 132.25 132.37 70.60 70.72 8.96 9.05 C 6.06 6.06 3.03 3.21 0.00 0.36 L 0.00 0.00 Z" />
<path fill="#fdedbb" d=" M 499.23 0.00 L 499.71 0.00 C 583.03 83.19 666.17 166.57 749.53 249.71 C 749.64 333.08 749.59 416.44 749.56 499.80 C 724.25 475.00 699.42 449.71 674.27 424.75 C 619.47 369.90 564.62 315.10 509.81 260.26 C 506.30 256.85 503.02 253.20 499.29 250.03 C 487.64 262.45 475.29 274.19 463.33 286.32 C 407.86 341.84 352.33 397.31 296.84 452.83 C 281.23 468.26 265.96 484.03 250.16 499.26 L 249.27 500.08 C 249.78 482.41 249.34 464.70 249.49 447.01 C 249.51 381.29 249.44 315.57 249.52 249.85 C 249.75 249.82 250.19 249.76 250.41 249.73 C 333.44 249.68 416.46 249.81 499.49 249.66 C 499.47 190.45 499.48 131.24 499.48 72.03 C 499.32 48.17 499.79 24.29 499.23 0.44 L 499.23 0.00 Z" />
<path fill="#5c3288" d=" M 499.71 0.00 L 998.32 0.00 C 995.87 3.92 992.22 6.79 989.04 10.07 C 909.25 89.99 829.25 169.72 749.53 249.71 C 666.17 166.57 583.03 83.19 499.71 0.00 Z" />
<path fill="#e64239" d=" M 998.32 0.00 L 1000.00 0.00 L 1000.00 500.33 C 993.81 504.62 989.03 510.49 983.61 515.64 C 909.57 589.61 835.64 663.67 761.59 737.62 C 757.79 741.50 754.17 745.61 749.67 748.71 C 749.45 665.82 749.70 582.93 749.55 500.04 L 749.56 499.80 C 749.59 416.44 749.64 333.08 749.53 249.71 C 829.25 169.72 909.25 89.99 989.04 10.07 C 992.22 6.79 995.87 3.92 998.32 0.00 Z" />
<path fill="#5c3288" d=" M 0.00 0.36 C 3.03 3.21 6.06 6.06 8.96 9.05 C 70.60 70.72 132.25 132.37 193.91 194.02 C 212.42 212.65 231.19 231.04 249.52 249.85 C 249.44 315.57 249.51 381.29 249.49 447.01 C 249.34 464.70 249.78 482.41 249.27 500.08 C 248.91 501.36 248.46 502.64 248.42 504.00 C 248.55 581.66 248.42 659.33 248.50 737.00 C 248.33 740.26 249.50 744.57 245.55 746.00 C 241.07 740.63 235.81 735.99 230.96 730.98 C 176.83 676.81 122.66 622.69 68.53 568.52 C 45.66 545.75 22.97 522.79 0.00 500.13 L 0.00 0.36 Z" />
<path fill="#e64239" d=" M 453.14 46.18 C 468.58 31.02 483.51 15.32 499.23 0.44 C 499.79 24.29 499.32 48.17 499.48 72.03 C 499.48 131.24 499.47 190.45 499.49 249.66 C 416.46 249.81 333.44 249.68 250.41 249.73 C 253.18 246.39 256.02 243.10 259.18 240.12 C 323.87 175.51 388.51 110.86 453.14 46.18 Z" />
<path fill="#cc5a98" d=" M 463.33 286.32 C 475.29 274.19 487.64 262.45 499.29 250.03 C 503.02 253.20 506.30 256.85 509.81 260.26 C 564.62 315.10 619.47 369.90 674.27 424.75 C 699.42 449.71 724.25 475.00 749.56 499.80 L 749.55 500.04 C 737.21 511.53 725.69 523.86 713.61 535.62 C 642.69 606.71 571.51 677.56 500.66 748.72 L 500.53 749.70 C 500.47 750.12 500.42 750.55 500.38 750.99 C 493.78 755.07 489.50 761.79 483.61 766.73 C 447.26 803.34 410.58 839.62 374.20 876.19 C 367.43 882.43 361.49 889.49 354.62 895.63 C 341.77 908.78 328.61 921.61 315.79 934.80 C 310.68 939.65 305.46 944.40 300.76 949.67 C 288.12 962.08 275.68 974.67 263.17 987.20 C 259.21 991.42 254.20 994.76 251.45 1000.00 L 249.83 1000.00 C 252.62 996.11 256.48 993.17 259.78 989.75 C 328.94 920.59 398.10 851.44 467.25 782.27 C 478.05 771.74 488.38 760.73 499.42 750.44 C 498.35 749.03 497.30 747.63 496.15 746.31 C 420.90 671.09 345.66 595.85 270.44 520.59 C 263.63 514.21 257.69 506.91 250.25 501.22 C 250.23 500.73 250.18 499.75 250.16 499.26 C 265.96 484.03 281.23 468.26 296.84 452.83 C 352.33 397.31 407.86 341.84 463.33 286.32 Z" />
<path fill="#441e2e" d=" M 447.12 441.22 C 454.85 439.25 463.60 441.06 469.54 446.50 C 478.40 453.96 480.28 468.18 473.91 477.80 C 469.91 484.33 462.53 488.40 454.98 489.03 C 447.55 489.54 440.09 486.31 435.10 480.84 C 430.36 475.18 427.88 467.33 429.58 460.04 C 431.13 451.07 438.32 443.45 447.12 441.22 Z" />
<path fill="#441e2e" d=" M 494.50 443.23 C 502.81 438.78 514.00 439.61 521.15 445.93 C 522.85 447.40 520.54 449.35 519.01 449.64 C 516.43 448.46 514.26 446.47 511.50 445.73 C 504.49 443.42 496.18 445.73 491.39 451.35 C 488.12 455.06 485.92 459.97 486.20 464.98 C 486.15 473.62 492.61 481.75 500.95 483.87 C 506.66 485.44 512.93 484.25 517.71 480.77 C 519.49 478.97 521.16 481.22 522.54 482.28 C 517.05 488.32 507.78 490.21 500.04 488.29 C 489.95 485.84 482.13 476.36 481.67 466.00 C 481.07 456.80 486.35 447.51 494.50 443.23 Z" />
<path fill="#441e2e" d=" M 575.95 445.96 C 583.84 437.82 598.35 439.19 606.07 446.93 C 605.03 447.90 604.02 448.88 602.99 449.86 C 597.47 445.46 589.68 443.38 583.00 446.31 C 578.94 447.70 575.88 452.81 578.23 456.83 C 580.17 460.74 585.10 460.88 588.88 461.46 C 595.38 462.36 603.15 462.82 607.47 468.50 C 611.64 474.66 608.56 483.83 601.79 486.67 C 591.78 491.32 577.62 489.80 570.87 480.40 C 571.81 479.36 572.75 478.33 573.69 477.30 C 579.58 484.61 590.48 486.40 598.95 483.03 C 603.01 481.40 605.97 476.87 604.37 472.50 C 602.45 468.24 597.35 467.16 593.19 466.51 C 587.86 465.73 582.01 465.80 577.40 462.68 C 572.05 458.96 571.56 450.59 575.95 445.96 Z" />
<path fill="#441e2e" d=" M 389.61 442.45 C 391.17 441.73 392.81 441.82 394.41 442.34 C 394.26 449.43 394.35 456.52 394.35 463.61 C 403.01 463.57 411.68 463.76 420.34 463.52 C 420.40 456.36 420.31 449.19 420.39 442.03 C 421.80 441.98 423.22 441.99 424.65 442.10 C 424.68 457.31 424.77 472.51 424.60 487.72 C 423.20 487.70 421.80 487.68 420.41 487.66 C 420.25 481.19 420.49 474.72 420.23 468.25 C 411.60 468.16 402.97 468.18 394.34 468.24 C 394.33 474.70 394.32 481.16 394.35 487.63 C 392.78 487.63 391.22 487.61 389.67 487.57 C 389.70 472.53 389.77 457.49 389.61 442.45 Z" />
<path fill="#441e2e" d=" M 527.67 442.09 C 529.18 442.13 531.45 440.88 532.09 442.96 C 532.49 452.95 531.85 462.98 532.40 472.96 C 533.34 480.76 541.77 485.47 549.12 484.60 C 555.17 484.19 561.60 479.98 562.59 473.68 C 563.77 463.04 561.79 452.26 563.50 441.67 C 564.47 441.78 566.41 441.99 567.38 442.10 C 567.67 451.38 567.49 460.68 567.49 469.96 C 567.56 474.42 566.29 478.99 563.29 482.38 C 558.24 487.89 550.16 490.35 542.88 488.67 C 534.96 487.15 527.92 480.29 527.71 471.96 C 527.54 462.01 527.65 452.05 527.67 442.09 Z" />
<path fill="#cc5a98" d=" M 450.80 445.07 C 456.52 444.24 462.63 446.14 466.86 450.10 C 472.25 455.05 474.41 463.13 472.41 470.14 C 469.76 480.73 457.28 487.24 447.06 483.48 C 439.98 481.03 434.42 474.43 433.70 466.91 C 432.36 456.62 440.39 446.12 450.80 445.07 Z" />
<path fill="#441e2e" d=" M 405.42 498.56 C 468.13 498.40 530.84 498.43 593.55 498.56 C 593.53 499.25 593.49 500.63 593.46 501.32 C 530.82 501.41 468.17 501.40 405.53 501.31 C 405.50 500.63 405.45 499.25 405.42 498.56 Z" />
<path fill="#e64239" d=" M 0.00 500.13 C 22.97 522.79 45.66 545.75 68.53 568.52 C 122.66 622.69 176.83 676.81 230.96 730.98 C 235.81 735.99 241.07 740.63 245.55 746.00 C 246.18 746.76 246.82 747.53 247.49 748.28 C 247.78 748.60 248.36 749.24 248.65 749.56 C 165.77 749.89 82.88 749.53 0.00 749.75 L 0.00 500.13 Z" />
<path fill="#884174" d=" M 248.42 504.00 C 248.46 502.64 248.91 501.36 249.27 500.08 L 250.16 499.26 C 250.18 499.75 250.23 500.73 250.25 501.22 C 250.34 559.81 250.26 618.41 250.29 677.01 C 250.14 700.80 250.58 724.61 250.08 748.40 C 249.43 748.37 248.14 748.31 247.49 748.28 C 246.82 747.53 246.18 746.76 245.55 746.00 C 249.50 744.57 248.33 740.26 248.50 737.00 C 248.42 659.33 248.55 581.66 248.42 504.00 Z" />
<path fill="#5c3288" d=" M 749.55 500.04 C 749.70 582.93 749.45 665.82 749.67 748.71 C 749.68 748.95 749.70 749.44 749.71 749.69 C 666.65 749.73 583.59 749.70 500.53 749.70 L 500.66 748.72 C 571.51 677.56 642.69 606.71 713.61 535.62 C 725.69 523.86 737.21 511.53 749.55 500.04 Z" />
<path fill="#cc5a98" d=" M 983.61 515.64 C 989.03 510.49 993.81 504.62 1000.00 500.33 L 1000.00 1000.00 L 999.69 1000.00 C 974.81 974.63 949.47 949.71 924.42 924.51 C 866.19 866.22 807.82 808.08 749.71 749.69 C 749.70 749.44 749.68 748.95 749.67 748.71 C 754.17 745.61 757.79 741.50 761.59 737.62 C 835.64 663.67 909.57 589.61 983.61 515.64 Z" />
<path fill="#e64239" d=" M 250.25 501.22 C 257.69 506.91 263.63 514.21 270.44 520.59 C 345.66 595.85 420.90 671.09 496.15 746.31 C 494.85 747.91 493.10 748.81 491.01 748.54 C 410.70 748.41 330.39 748.68 250.08 748.40 C 250.58 724.61 250.14 700.80 250.29 677.01 C 250.26 618.41 250.34 559.81 250.25 501.22 Z" />
<path fill="#b94050" d=" M 6.69 507.96 C 10.38 510.31 13.23 513.66 16.25 516.76 C 34.07 534.29 51.46 552.25 69.31 569.74 C 74.53 575.15 80.05 580.26 85.02 585.90 C 100.51 600.40 115.08 615.87 130.29 630.69 C 134.85 635.82 140.02 640.33 144.59 645.45 C 152.72 652.64 159.86 660.85 167.77 668.24 C 191.63 692.03 215.41 715.92 239.20 739.78 C 240.92 741.53 242.45 743.47 243.92 745.45 C 240.76 743.19 238.06 740.41 235.45 737.56 C 163.98 666.05 92.43 594.63 21.02 523.07 C 16.34 517.95 10.51 513.83 6.69 507.96 Z" />
<path fill="#441e2e" d=" M 453.00 510.71 C 461.37 510.52 469.77 514.84 474.07 522.10 C 479.74 531.03 478.73 543.69 471.45 551.43 C 464.70 558.85 453.14 561.58 443.93 557.36 C 436.03 554.17 430.40 546.45 429.34 538.05 C 428.03 528.39 433.09 518.10 441.83 513.62 C 445.23 511.73 449.13 510.85 453.00 510.71 Z" />
<path fill="#441e2e" d=" M 491.31 515.27 C 499.96 508.51 513.63 508.73 521.68 516.34 C 522.17 517.96 520.32 518.77 519.52 519.88 C 514.69 516.67 509.02 513.76 503.04 515.06 C 492.09 516.33 484.03 528.19 486.63 538.85 C 488.70 548.36 498.36 555.61 508.12 554.41 C 512.37 554.13 516.12 551.94 519.53 549.55 C 520.53 550.51 521.52 551.47 522.53 552.44 C 512.42 562.83 493.37 560.33 485.80 548.10 C 478.49 537.93 481.34 522.61 491.31 515.27 Z" />
<path fill="#441e2e" d=" M 581.14 512.20 C 589.40 508.82 599.79 510.40 606.09 516.94 C 605.06 517.91 604.02 518.88 603.01 519.86 C 597.98 515.46 590.91 514.08 584.51 515.74 C 581.21 516.76 578.00 519.26 577.55 522.90 C 577.01 526.23 579.42 529.37 582.59 530.22 C 590.00 532.36 598.54 531.21 605.07 535.95 C 611.90 540.79 610.15 552.30 602.99 555.97 C 593.30 561.30 579.72 560.06 571.94 551.90 C 569.92 550.16 572.81 548.52 573.79 547.22 C 579.14 554.06 588.85 555.94 596.93 553.74 C 599.59 552.91 602.28 551.46 603.74 548.99 C 605.70 545.85 605.04 541.06 601.64 539.19 C 595.32 535.28 587.42 536.82 580.65 534.27 C 577.02 533.04 573.93 529.98 573.25 526.14 C 571.91 520.32 575.76 514.35 581.14 512.20 Z" />
<path fill="#441e2e" d=" M 389.71 511.44 C 395.77 511.25 401.85 511.15 407.92 511.44 C 413.40 511.74 419.27 513.95 422.28 518.81 C 425.01 522.92 425.11 528.13 424.53 532.88 C 423.67 539.29 418.36 544.59 412.08 545.84 C 406.24 547.00 400.25 546.38 394.34 546.54 C 394.24 550.46 394.22 554.39 394.23 558.32 C 392.73 558.34 391.24 558.36 389.75 558.39 C 389.65 542.74 389.71 527.09 389.71 511.44 Z" />
<path fill="#441e2e" d=" M 527.55 512.39 C 529.12 511.62 530.82 511.66 532.38 512.49 C 532.19 522.00 532.29 531.51 532.30 541.02 C 532.18 545.38 534.57 549.59 538.24 551.89 C 545.45 556.77 556.50 555.05 561.26 547.55 C 563.72 543.48 562.58 538.50 562.84 534.01 C 562.68 527.00 563.05 520.00 563.27 513.01 C 563.20 510.89 566.19 512.15 567.41 511.73 C 567.62 521.46 567.53 531.20 567.48 540.93 C 567.54 546.73 564.57 552.48 559.60 555.54 C 551.34 561.18 539.05 560.14 532.29 552.60 C 529.16 549.57 527.76 545.20 527.68 540.93 C 527.47 531.42 527.82 521.90 527.55 512.39 Z" />
<path fill="#cc5a98" d=" M 448.52 515.77 C 458.01 513.22 468.73 518.69 471.98 528.00 C 474.62 535.19 472.93 543.97 467.18 549.19 C 462.24 554.15 454.57 556.00 447.88 554.01 C 440.73 551.84 434.93 545.45 433.88 538.00 C 432.10 528.29 439.03 518.12 448.52 515.77 Z" />
<path fill="#cc5a98" d=" M 394.43 542.35 C 394.11 533.44 394.18 524.52 394.39 515.62 C 401.10 515.78 408.20 514.93 414.51 517.73 C 422.95 522.14 422.44 536.38 413.99 540.53 C 407.76 542.88 400.95 542.14 394.43 542.35 Z" />
<path fill="#b94050" d=" M 496.15 746.31 C 497.30 747.63 498.35 749.03 499.42 750.44 C 416.12 750.25 332.81 750.39 249.51 750.37 L 248.65 749.56 C 248.36 749.24 247.78 748.60 247.49 748.28 C 248.14 748.31 249.43 748.37 250.08 748.40 C 330.39 748.68 410.70 748.41 491.01 748.54 C 493.10 748.81 494.85 747.91 496.15 746.31 Z" />
<path fill="#cc5a98" d=" M 0.00 749.75 C 82.88 749.53 165.77 749.89 248.65 749.56 L 249.51 750.37 C 249.45 833.58 249.66 916.79 249.40 1000.00 L 0.00 1000.00 L 0.00 749.75 Z" />
<path fill="#5c3288" d=" M 249.51 750.37 C 332.81 750.39 416.12 750.25 499.42 750.44 C 488.38 760.73 478.05 771.74 467.25 782.27 C 398.10 851.44 328.94 920.59 259.78 989.75 C 256.48 993.17 252.62 996.11 249.83 1000.00 L 249.40 1000.00 C 249.66 916.79 249.45 833.58 249.51 750.37 Z" />
<path fill="#fdedbb" d=" M 500.38 750.99 C 500.42 750.55 500.47 750.12 500.53 749.70 C 583.59 749.70 666.65 749.73 749.71 749.69 C 807.82 808.08 866.19 866.22 924.42 924.51 C 949.47 949.71 974.81 974.63 999.69 1000.00 L 749.05 1000.00 C 687.26 938.12 625.46 876.26 563.73 814.33 C 542.48 793.35 521.81 771.79 500.38 750.99 Z" />
<path fill="#e64239" d=" M 483.61 766.73 C 489.50 761.79 493.78 755.07 500.38 750.99 C 521.81 771.79 542.48 793.35 563.73 814.33 C 625.46 876.26 687.26 938.12 749.05 1000.00 L 251.45 1000.00 C 254.20 994.76 259.21 991.42 263.17 987.20 C 275.68 974.67 288.12 962.08 300.76 949.67 C 305.46 944.40 310.68 939.65 315.79 934.80 C 328.61 921.61 341.77 908.78 354.62 895.63 C 361.49 889.49 367.43 882.43 374.20 876.19 C 410.58 839.62 447.26 803.34 483.61 766.73 Z" />
<path fill="#441e2e" d=" M 505.31 885.28 C 506.30 885.41 507.29 885.56 508.28 885.71 C 508.37 886.36 508.56 887.67 508.65 888.32 C 510.04 888.35 511.43 888.41 512.84 888.48 C 512.63 888.93 512.21 889.84 512.00 890.30 C 509.78 890.33 507.56 890.40 505.35 890.46 C 505.36 890.96 505.37 891.98 505.38 892.48 C 507.95 892.58 510.58 892.73 512.91 893.98 C 510.21 894.81 507.21 894.35 504.76 895.96 C 506.97 897.85 509.96 897.34 512.64 897.47 L 512.53 899.52 C 509.16 899.55 505.79 899.55 502.42 899.50 C 502.22 895.83 502.20 892.16 502.34 888.49 C 503.48 888.41 504.62 888.34 505.77 888.28 C 505.61 887.27 505.46 886.27 505.31 885.28 Z" />
<path fill="#b94050" d=" M 540.73 887.69 C 543.98 887.03 547.37 887.08 550.65 887.49 C 552.01 888.30 550.97 890.10 550.99 891.35 C 550.36 894.06 550.65 896.84 551.54 899.46 C 548.12 901.14 543.80 901.06 540.31 899.66 C 539.01 896.01 538.72 891.11 540.73 887.69 Z" />
<path fill="#441e2e" d=" M 472.07 888.36 C 475.23 888.40 478.44 888.11 481.58 888.63 C 483.98 889.90 484.03 893.46 481.97 895.11 C 479.90 895.78 477.67 895.54 475.53 895.68 C 475.28 897.59 475.49 900.16 472.69 899.67 C 470.87 896.22 471.88 892.07 472.07 888.36 Z" />
<path fill="#441e2e" d=" M 491.32 888.20 C 492.31 888.35 493.29 888.51 494.29 888.69 C 494.29 892.28 494.28 895.87 494.26 899.47 C 492.39 899.92 490.62 899.16 490.79 897.01 C 490.51 894.06 490.84 891.10 491.32 888.20 Z" />
<path fill="#441e2e" d=" M 523.54 888.43 C 527.09 887.74 532.75 887.71 532.99 892.62 C 530.94 892.87 529.36 892.03 528.21 890.43 C 526.90 890.54 525.17 890.04 524.34 891.39 C 522.62 893.11 523.56 895.81 524.91 897.46 C 525.65 897.43 527.13 897.38 527.87 897.35 C 529.09 895.68 530.92 895.02 532.95 895.09 C 532.93 900.04 526.99 900.21 523.42 899.34 C 520.97 898.73 520.35 896.03 519.57 894.00 C 520.32 891.86 520.86 888.89 523.54 888.43 Z" />
<path fill="#441e2e" d=" M 558.40 889.72 C 561.80 887.09 568.09 886.83 569.84 891.47 C 568.07 891.72 566.34 891.72 565.03 890.39 C 564.31 890.38 562.87 890.34 562.15 890.33 C 562.23 890.82 562.39 891.79 562.47 892.28 C 564.11 892.36 565.74 892.42 567.40 892.49 C 568.55 893.56 569.65 894.69 570.72 895.88 C 569.08 900.72 562.17 900.75 558.73 898.04 C 557.05 894.75 561.99 895.18 562.86 897.41 C 563.77 897.48 564.70 897.56 565.63 897.65 C 565.70 897.13 565.84 896.09 565.91 895.58 C 563.34 895.06 560.66 894.73 558.38 893.36 C 558.38 892.45 558.40 890.63 558.40 889.72 Z" />
<path fill="#441e2e" d=" M 426.64 890.84 C 428.45 889.94 430.21 888.80 432.26 888.51 C 432.38 892.12 432.38 895.73 432.29 899.35 C 431.57 899.39 430.14 899.48 429.43 899.52 C 429.25 896.71 430.07 892.43 426.06 892.20 C 426.21 891.86 426.50 891.18 426.64 890.84 Z" />
<path fill="#441e2e" d=" M 443.85 899.39 C 439.70 897.48 439.90 890.64 444.02 888.79 C 446.89 888.07 451.17 887.90 451.99 891.62 C 449.24 891.71 446.16 890.64 443.67 892.24 C 446.17 892.31 448.67 892.34 451.17 892.45 C 451.78 893.91 452.66 895.42 452.24 897.09 C 450.64 900.11 446.71 899.82 443.85 899.39 Z" />
<path fill="#441e2e" d=" M 540.90 888.57 C 544.14 888.41 547.39 888.36 550.64 888.45 L 550.76 890.25 C 548.55 890.30 546.35 890.37 544.15 890.44 C 544.11 890.98 544.04 892.08 544.01 892.63 C 546.08 892.70 548.16 892.77 550.24 892.89 C 549.80 895.74 546.19 894.20 544.25 894.61 C 544.07 894.96 543.69 895.65 543.50 895.99 C 543.69 896.35 544.07 897.06 544.26 897.42 C 546.42 897.44 548.57 897.47 550.74 897.52 L 550.73 899.36 C 547.43 899.43 544.14 899.40 540.85 899.28 C 540.74 895.71 540.76 892.13 540.90 888.57 Z" />
<path fill="#b94050" d=" M 475.13 890.24 C 476.66 890.27 478.20 890.31 479.75 890.37 C 479.79 891.41 479.79 892.46 479.76 893.53 C 478.25 893.55 476.76 893.60 475.27 893.65 C 475.22 892.50 475.17 891.36 475.13 890.24 Z" />
<path fill="#b94050" d=" M 505.35 890.46 C 507.56 890.40 509.78 890.33 512.00 890.30 C 512.27 891.51 512.53 892.76 512.91 893.98 C 510.58 892.73 507.95 892.58 505.38 892.48 C 505.37 891.98 505.36 890.96 505.35 890.46 Z" />
<path fill="#b94050" d=" M 444.07 896.85 C 444.01 894.05 446.65 894.03 448.76 894.30 C 448.73 895.45 448.68 896.60 448.61 897.77 C 447.04 897.72 445.50 897.48 444.07 896.85 Z" />
</svg>
