<svg width="66px" height="80px" viewBox="0 0 66 80" version="1.1" xmlns="http://www.w3.org/2000/svg" xmlns:xlink="http://www.w3.org/1999/xlink" xmlns:sketch="http://www.bohemiancoding.com/sketch/ns">
    <g id="Page-1" stroke="none" stroke-width="1" fill="none" fill-rule="evenodd" sketch:type="MSPage">
        <g id="icon_774" sketch:type="MSLayerGroup" fill="#000000">
            <path d="M32.796,19.596 C38.213,19.594 42.595,15.207 42.595,9.801 C42.595,4.388 38.212,0.004 32.796,0.001 C27.385,0.004 23.009,4.388 23.009,9.801 C23.009,15.207 27.385,19.594 32.796,19.596 L32.796,19.596 Z" id="Shape" sketch:type="MSShapeGroup"></path>
            <path d="M65.493,48.064 C65.392,47.601 65.197,47.183 64.953,46.805 L64.966,46.798 L64.934,46.769 C64.612,46.28 64.183,45.88 63.693,45.586 L56.145,38.406 L48.506,24.198 L48.151,23.537 L48.135,23.549 C47.223,22.159 45.625,21.335 43.922,21.441 L21.663,21.441 C19.959,21.336 18.362,22.159 17.451,23.549 L17.435,23.537 L17.079,24.198 L9.44,38.406 L1.892,45.586 C1.4,45.879 0.972,46.279 0.651,46.769 L0.619,46.798 L0.631,46.805 C0.386,47.183 0.193,47.601 0.091,48.064 C-0.369,50.148 0.946,52.212 3.03,52.672 C3.111,52.689 3.186,52.687 3.266,52.699 C2.783,53.64 2.484,54.689 2.484,55.819 C2.484,58.76 4.338,61.251 6.933,62.235 L6.921,62.26 L18.378,67.218 L16.037,68.397 C15.795,68.494 15.568,68.62 15.344,68.749 L15.316,68.764 C13.622,69.742 12.465,71.551 12.465,73.648 C12.465,76.773 15,79.305 18.125,79.305 C18.819,79.305 19.479,79.162 20.094,78.932 L20.102,78.951 L20.268,78.881 C20.308,78.861 20.351,78.844 20.393,78.824 L32.792,73.46 L45.191,78.824 C45.233,78.844 45.276,78.861 45.316,78.881 L45.482,78.951 L45.49,78.932 C46.105,79.162 46.765,79.305 47.458,79.305 C50.583,79.305 53.118,76.773 53.118,73.648 C53.118,71.551 51.963,69.742 50.268,68.764 L50.268,68.764 L50.241,68.749 C50.015,68.62 49.79,68.494 49.547,68.397 L47.206,67.218 L58.662,62.26 L58.65,62.236 C61.246,61.252 63.1,58.761 63.1,55.82 C63.1,54.69 62.8,53.641 62.317,52.7 C62.398,52.687 62.472,52.689 62.553,52.673 C64.638,52.212 65.954,50.148 65.493,48.064 L65.493,48.064 Z M9.592,48.963 L16.307,43.075 L19.598,37.751 L20.714,53.863 L12.752,49.85 L12.746,49.862 C11.807,49.329 10.74,49.002 9.592,48.963 L9.592,48.963 Z M52.834,49.851 L45.987,53.301 L47.135,39.609 L49.278,43.075 L55.992,48.963 C54.845,49.002 53.777,49.328 52.84,49.862 L52.834,49.851 L52.834,49.851 Z" id="Shape" sketch:type="MSShapeGroup"></path>
        </g>
    </g>
</svg>