<svg xmlns="http://www.w3.org/2000/svg" xmlns:xlink="http://www.w3.org/1999/xlink" version="1.1" x="0px" y="0px" viewBox="0 0 100 100" enable-background="new 0 0 100 100" xml:space="preserve"><g><polygon fill="none" points="91.5,76.9 91.5,76.9 91.5,76.9  "/><path fill="#010101" d="M41.8,76.8L7.3,71.9c-0.2,0-0.8,0.2-0.8,0.2C6.3,72.3,6,72.6,6,72.9l0,0.1l36.3,5.1L41.8,76.8z"/><path fill="#010101" d="M5.9,73.4l-0.2,1.9c0,0.3,0.2,0.6,0.5,0.6l27.6,3.9c0.3,0,0.8,0.2,1,0.3l9.8,5.4l-2.3-7L5.9,73.4z"/><path fill="#010101" d="M91.5,76.9C91.5,76.9,91.5,76.9,91.5,76.9C91.5,76.9,91.5,76.9,91.5,76.9z"/><path fill="#010101" d="M66.9,68.2c-13.7,0-24.8,3.5-24.8,7.8c0,0.1,0,0.3,0,0.4c0,0,0,0,0,0c0,0.1,0.1,0.3,0.1,0.4c0,0,0,0,0,0   l2.8,8.1c1.4,3.7,9.8,8,21.9,8s20.4-4.1,21.9-8l2.8-8.1c0,0,0,0,0,0c0,0,0,0,0,0c0,0,0,0,0,0c0,0,0,0,0,0v0c0,0,0,0,0,0   c0-0.1,0.1-0.3,0.1-0.4c0,0,0,0,0,0c0-0.1,0-0.3,0-0.4C91.7,71.7,80.6,68.2,66.9,68.2z M89.8,78.8L89.8,78.8   c-0.1,0.6-0.6,1.4-1.6,2.2c-1.1,0.9-2.6,1.8-4.3,2.6c-2.1,0.9-4.5,1.7-7.1,2.2c-3.1,0.6-6.4,0.9-9.9,0.9c-3.5,0-6.9-0.3-9.9-0.9   c-2.6-0.5-5-1.3-7.1-2.2c-1.7-0.8-3.2-1.7-4.3-2.6c-1-0.8-1.5-1.6-1.6-2.2l0,0l0,0c0.1-0.6,0.6-1.4,1.6-2.2   c1.1-0.9,2.6-1.8,4.3-2.6c2.1-0.9,4.5-1.7,7.1-2.2c3.1-0.6,6.4-0.9,9.9-0.9c3.5,0,6.9,0.3,9.9,0.9c2.6,0.5,5,1.3,7.1,2.2   c1.7,0.8,3.2,1.7,4.3,2.6c1,0.8,1.5,1.6,1.6,2.2L89.8,78.8L89.8,78.8z"/><path fill="#010101" d="M89.1,77.9c0,0-0.1-0.1-0.1-0.1c-0.2-0.3-0.6-0.6-1-1c-1.1-0.9-2.5-1.8-4.2-2.5c-2.1-0.9-4.4-1.6-7-2.2   c-3-0.6-6.4-0.9-9.9-0.9c-3.5,0-6.8,0.3-9.9,0.9c-2.6,0.5-5,1.2-7,2.2c-1.7,0.8-3.2,1.6-4.2,2.5c-0.4,0.3-0.7,0.7-0.9,1   c0,0.1-0.1,0.1-0.1,0.2c-0.2,0.3-0.4,0.6-0.4,0.8c0,0.2,0.2,0.5,0.4,0.8c0.2,0.3,0.6,0.7,1,1c0,0,0.1,0.1,0.1,0.1   c1.1,0.9,2.5,1.8,4.2,2.5c2.1,0.9,4.4,1.6,7,2.2c3,0.6,6.4,0.9,9.9,0.9c3.5,0,6.8-0.3,9.9-0.9c2.6-0.5,5-1.2,7-2.2   c1.7-0.8,3.2-1.6,4.2-2.5c0.1,0,0.1-0.1,0.2-0.1c0.4-0.3,0.7-0.7,0.9-1c0.2-0.3,0.4-0.6,0.4-0.8v0C89.4,78.5,89.3,78.2,89.1,77.9z    M66.7,83.5c-0.4,0.4-0.4,0.7-0.2,1.2c0,0.1,0.1,0.3,0.1,0.5c0,0.1,0,0.1,0,0.2c0,0-0.1,0.1-0.1,0.1c-0.1,0-0.1,0.1-0.2,0.1   c-0.1,0-0.2,0-0.4,0c-0.2,0-0.3,0-0.4,0c-0.1,0-0.2,0-0.3-0.1c0,0,0,0,0,0c0,0,0,0-0.1,0l0,0l0,0c-0.3-0.1-0.6-0.2-0.9-0.3   c-0.6-0.2-1.3-0.5-1.9-0.5c0,0-0.1,0-0.1,0l-0.1,0L62,84.4l0-0.1c0-0.1,0-0.3,0-0.4c0-0.3-0.1-0.5,0-0.7c0-0.3,0.2-0.5,0.4-0.7l0,0   c0.3-0.3,0.8-0.4,1.3-0.6c0,0,0.1,0,0.1,0c-0.1,0-0.1-0.1-0.2-0.1c-0.6-0.3-1.2-0.6-2-0.6l0,0c-0.5,0-0.9,0-1.4,0.1   c-0.5,0-1,0.1-1.5,0.1c-0.2,0-0.5,0-0.7,0c-0.3,0-0.8-0.1-1.3-0.3c-0.6-0.2-0.9-0.4-1.1-0.7c-0.1-0.1-0.1-0.3,0-0.5   c0-0.2,0.1-0.3,0.2-0.5c0,0,0.1-0.1,0.1-0.1c0,0,0.1-0.1,0.1-0.1c0.2-0.2,0.5-0.3,0.7-0.4c0.3-0.1,0.6-0.2,0.8-0.4   c0.3-0.2,0.5-0.5,0.7-0.8c0.3-0.4,0.6-0.9,1.1-1.2c0.3-0.2,0.7-0.4,1.1-0.5c0.3-0.1,0.7-0.1,1.2-0.2c0.3-0.5,0.8-0.8,1.2-1.1   c0.5-0.3,1.2-0.5,1.8-0.5c0.5,0,1.1,0.1,1.6,0.4c0.4,0.2,0.8,0.5,1.1,0.9c0.1,0,0.1-0.1,0.1-0.1c0.5-0.3,1.1-0.5,1.7-0.5   c0,0,0.1,0,0.1,0c0.7,0,1.4,0.1,1.9,0.4c0.6,0.3,1,0.7,1.1,1.3c0.4-0.3,0.9-0.6,1.3-0.9c0.9-0.5,1.7-1.1,2-1.9l0-0.1l0.6-0.2   c0.1,0,0.3-0.1,0.5-0.1c0.5,0,1.1,0.2,1.5,0.4l0,0c0.1,0,0.2,0,0.2,0.1c0.2,0.1,0.2,0.1,0.2,0.1c0,0,0,0,0,0c0,0,0.1,0,0.1,0   c0,0,0.1,0,0.1,0c0,0,0.2,0,0.2,0.1c0,0,0.1,0.1,0,0.2c-0.3,0.6-0.6,1.1-1,1.5c-0.4,0.5-0.9,0.8-1.6,1c-0.7,0.2-1.2,0.6-1.8,1   c-0.6,0.4-1.2,0.8-1.9,1.1c-0.4,0.1-0.6,0.3-0.8,0.5c-0.2,0.2-0.2,0.4-0.3,0.6c-0.1,0.3-0.2,0.6-0.6,1c-0.5,0.5-1,0.8-1.5,1.1   c-0.2,0.1-0.5,0.2-0.8,0.4C68,82.7,67.3,83,66.7,83.5z M82.7,75.2c-0.3,0.9-0.9,2-1.8,2.9c-0.9,1-1.9,1.7-2.8,1.9   c-0.5,0.1-1,0.3-1.5,0.5c-0.5,0.3-0.9,0.6-1.2,1c-0.1,0.1-0.2,0.2-0.2,0.4c-0.3,0.4-0.5,0.8-0.9,1.1c-0.4,0.3-0.8,0.5-1.3,0.7   c-0.7,0.3-1.3,0.5-1.8,1.3c-0.1,0.2-0.6,0.2-0.6,0.2c-0.1,0-0.1,0-0.2,0c0,0-0.1,0-0.1,0c-0.2,0-0.2,0-0.3-0.1l0,0   c-0.4,0-0.7-0.1-1.1-0.1c-0.4-0.1-0.7-0.1-0.9-0.1c-0.1,0-0.1,0-0.2,0c-0.1,0-0.1,0-0.2,0c-0.1,0-0.3,0-0.4-0.1l0,0L67,84.6l0-0.1   c0.2-0.8,0.5-1.4,1-1.8c0.5-0.4,1.2-0.5,1.8-0.6c0.3,0,0.9-0.3,1.4-0.6c0.5-0.3,0.9-0.7,0.9-0.9c0-0.1,0-0.2,0-0.2   c0-0.3,0.1-0.7,0.4-1c0.2-0.2,0.4-0.4,0.7-0.5c0.3-0.2,0.8-0.4,1.3-0.5l0,0c0.3-0.1,0.6-0.1,0.9-0.1c0.5,0,0.8-0.1,1.3-0.5   c0.2-0.2,0.4-0.4,0.5-0.7c0.2-0.3,0.3-0.6,0.6-0.8c0.2-0.2,0.5-0.4,0.8-0.8c0.3-0.4,0.5-0.7,0.6-0.9l0-0.2l0.2,0   c0.6,0.2,1.6,0.2,2.1,0.3c0,0,0,0,0,0c0,0,0.1,0,0.1,0c0,0,0.1,0,0.1,0c0.1,0,0.3,0,0.4,0.1c0,0,0,0,0,0l0.1,0l0,0   c0.2,0.1,0.2,0.1,0.3,0.2C82.7,75.1,82.8,75.1,82.7,75.2z"/><path fill="#FFFFFF" d="M89.6,78.9L89.6,78.9C89.6,78.8,89.6,78.8,89.6,78.9c0,0.1-0.1,0.2-0.2,0.4C89.6,79.2,89.6,79,89.6,78.9z"/><path fill="#FFFFFF" d="M56,79.2C56,79.2,56,79.2,56,79.2L56,79.2C56,79.2,56,79.2,56,79.2z"/><path fill="#FFFFFF" d="M55.7,79.7C55.7,79.7,55.7,79.7,55.7,79.7C55.7,79.7,55.7,79.7,55.7,79.7z"/><path fill="#FFFFFF" d="M55.9,79.4C55.9,79.4,55.9,79.4,55.9,79.4C55.9,79.4,55.9,79.4,55.9,79.4z"/><path fill="#FFFFFF" d="M55.9,79.4C55.9,79.4,55.9,79.4,55.9,79.4C55.9,79.4,55.9,79.4,55.9,79.4z"/><path fill="#010101" d="M55.9,79.3C55.9,79.3,56,79.3,55.9,79.3C56,79.3,56,79.3,55.9,79.3C56,79.3,55.9,79.3,55.9,79.3   C55.9,79.3,55.9,79.3,55.9,79.3C55.9,79.3,55.9,79.3,55.9,79.3z"/><path fill="#010101" d="M55.9,79.4C55.9,79.4,55.9,79.4,55.9,79.4c-0.1,0.1-0.2,0.2-0.2,0.3C55.7,79.6,55.8,79.5,55.9,79.4   C55.9,79.4,55.9,79.4,55.9,79.4z"/><path fill="#010101" d="M55.9,79.4C55.9,79.4,55.9,79.4,55.9,79.4C55.9,79.4,55.9,79.4,55.9,79.4z"/><path fill="#010101" d="M55.7,79.8C55.7,79.8,55.7,79.8,55.7,79.8C55.7,79.8,55.7,79.8,55.7,79.8z"/><path fill="#010101" d="M65.3,85.2C65.3,85.2,65.3,85.2,65.3,85.2C65.3,85.2,65.3,85.2,65.3,85.2C65.3,85.2,65.3,85.2,65.3,85.2   C65.3,85.1,65.3,85.1,65.3,85.2C65.3,85.1,65.3,85.1,65.3,85.2C65.3,85.1,65.3,85.1,65.3,85.2c0-0.1,0-0.1,0-0.1c0,0,0,0,0,0   c0,0,0,0,0,0c0,0,0,0,0,0c0,0,0,0,0,0c0,0,0,0,0,0c0,0,0,0,0,0c0,0,0,0,0,0c0,0,0,0,0,0c0,0,0,0,0,0c0,0,0,0,0,0c0,0,0,0,0,0   c0,0,0,0,0,0c0,0,0,0,0,0c0,0,0,0,0,0c0,0,0,0,0,0c0,0,0,0,0,0c0,0,0,0,0,0c0,0,0,0,0,0c0,0,0,0,0,0c0,0,0,0,0,0c0,0,0,0,0,0   c0,0,0,0,0,0c0,0,0,0,0,0c0,0,0,0,0,0c0,0,0,0,0,0c0,0,0,0,0,0c0,0,0,0,0,0c0,0,0,0,0,0c0,0,0,0,0,0c0,0,0,0,0,0c0,0,0,0,0,0   c0,0,0,0,0,0c0,0,0,0,0,0c0,0,0,0,0,0c0,0,0,0,0,0c0,0,0,0,0,0c0,0,0,0,0,0c0,0,0,0,0,0c0,0,0,0,0,0c0,0,0,0,0,0c0,0,0,0,0,0   c0,0,0,0,0,0c0,0,0,0,0,0c0,0,0,0,0,0c0,0,0,0,0,0c0,0,0,0,0,0c0,0,0,0,0,0c0,0,0,0,0,0c0,0,0,0,0,0c0,0,0,0,0,0c0,0,0,0,0,0   c0,0,0,0,0,0c0,0,0,0,0,0c0,0,0,0,0,0c0,0,0,0,0,0c0,0,0,0,0,0c0,0,0,0,0,0c0,0,0,0,0,0c0,0,0,0,0,0c0,0,0,0,0,0c0,0,0,0,0,0   c0,0,0,0,0,0c0,0,0,0,0,0c0,0,0,0,0,0c0,0,0,0,0,0c0,0,0,0,0,0c0,0,0,0,0,0c0,0,0,0,0,0c0,0,0,0,0,0c0,0,0,0,0,0c0,0,0,0,0,0   c0,0,0,0,0,0c0,0,0,0,0,0c0,0,0,0,0,0c0,0,0,0,0,0c0,0,0,0,0,0c0,0,0,0,0,0c0,0,0,0,0,0c0,0,0,0,0,0c0,0,0,0,0,0c0,0,0,0,0,0   c0,0,0,0,0,0c0,0,0,0,0,0c0,0,0,0,0,0c0,0,0,0,0,0c0,0,0,0,0,0c0,0,0,0,0,0c0,0,0,0,0,0c0,0,0,0,0,0c0,0,0,0,0,0c0,0,0,0,0,0   c0,0,0,0,0,0c0,0,0,0,0,0c0,0,0,0,0,0c0,0,0,0,0,0c0,0,0,0,0,0c0,0,0,0,0,0c0,0,0,0,0,0c0,0,0,0,0,0c0,0,0,0,0,0c0,0,0,0,0,0   c0,0,0,0,0,0c0,0,0,0,0,0c0,0,0,0,0,0c0,0,0,0,0,0c0,0,0,0,0,0c0,0,0,0,0,0c0,0,0,0,0,0c0,0,0,0,0,0c0,0,0,0,0,0c0,0,0,0,0,0   c0,0,0,0,0,0c0,0,0,0,0,0c0,0,0,0,0,0c0,0,0,0,0,0c0,0,0,0,0,0c0,0,0,0,0,0c0,0,0,0,0,0c0,0,0,0,0,0c0,0,0,0,0,0   c0.5-0.6,1.2-1,2-1.4c0.1,0,0.2-0.1,0.3-0.1c0.1,0,0.2-0.1,0.3-0.2c0,0,0,0,0,0c0,0,0,0,0,0c0,0,0.1,0,0.1,0c0,0,0,0,0.1,0   c0.4-0.2,0.8-0.4,1.2-0.6c0,0,0,0,0.1,0c0,0,0,0,0.1,0c0,0,0,0,0,0c0,0,0,0,0,0c0.2-0.2,0.4-0.4,0.6-0.7c0.1-0.2,0.2-0.4,0.3-0.5   c0.1-0.3,0.1-0.6,0.3-0.8c0,0,0,0,0,0c0,0,0,0,0-0.1c0.1-0.1,0.1-0.1,0.2-0.2c0.5-0.5,1.5-0.5,2.1-0.9c0.1-0.1,0.3-0.2,0.4-0.2   c0.2-0.2,0.4-0.3,0.5-0.5c0,0,0,0,0,0c0,0,0,0,0,0c0.3-0.2,0.5-0.5,0.9-0.6c0.7-0.3,1.4-0.3,2-0.9c0,0,0,0,0,0c0,0,0,0,0,0   c0,0,0,0,0,0c0,0,0,0,0,0c0,0,0,0,0,0c0,0,0,0,0,0c0,0,0,0,0,0c0,0,0,0,0,0c0,0,0,0,0,0c0,0,0,0,0,0c0,0,0,0,0,0c0,0,0,0,0,0   c0,0,0,0,0,0c0,0,0,0,0,0c0,0,0,0,0,0c0,0,0,0,0,0c0,0,0,0,0,0c0,0,0,0,0,0c0,0,0,0,0,0c0,0,0,0,0,0c0,0,0,0,0,0c0,0,0,0,0,0   c0,0,0,0,0,0c0,0,0,0,0,0c0,0,0,0,0,0c0,0,0,0,0,0c0,0,0,0,0,0c0,0,0,0,0,0c0,0,0,0,0,0c0,0,0,0,0,0c0,0,0,0,0,0c0,0,0,0,0,0   c0,0,0,0,0,0c0,0,0,0,0,0c0,0,0,0,0,0c0,0,0,0,0,0c0,0,0,0,0,0c0,0,0,0,0,0c0,0,0,0,0,0c0,0,0,0,0,0c0,0,0,0,0,0c0,0,0,0,0,0   c0,0,0,0,0,0c0,0,0,0,0,0c0,0,0,0,0,0c0,0,0,0,0,0c0,0,0,0,0,0c0,0,0,0,0,0c0,0,0,0,0,0c0,0,0,0,0,0c0,0,0,0,0,0c0,0,0,0,0,0   c0,0,0,0,0,0c0,0,0,0,0,0c0,0,0,0,0,0c0,0,0,0,0,0c0,0,0,0,0,0c0,0,0,0,0,0c0,0,0,0,0,0c0,0,0,0,0,0c0,0,0,0,0,0c0,0,0,0,0,0   c0,0,0,0,0,0c0,0,0,0,0,0c0,0,0,0,0,0c0,0,0,0,0,0c0,0,0,0,0,0c0,0,0,0,0,0c0,0,0,0,0,0c0,0,0,0,0,0c0,0,0,0,0,0c0,0,0,0,0,0   c0,0,0,0,0,0c0,0,0,0,0,0c0,0,0,0,0,0c0,0,0,0,0,0c0,0,0,0,0,0c0,0,0,0,0,0c0,0,0,0,0,0c0,0,0,0,0,0c0,0,0,0,0,0c0,0,0,0,0,0   c0,0,0,0,0,0c0,0,0,0,0,0c0,0,0,0,0,0c0,0,0,0,0,0c0,0,0,0,0,0c0,0,0,0,0,0c0,0,0,0,0,0c0,0,0,0,0,0c0,0,0,0,0,0c0,0,0,0,0,0   c0,0,0,0,0,0c0,0,0,0,0,0c0,0,0,0,0,0c0,0,0,0,0,0c0,0,0,0,0,0c0,0,0,0,0,0c0,0,0,0,0,0c0,0,0,0,0,0c0,0,0,0,0,0c0,0,0,0,0,0   c0,0,0,0,0,0c0,0,0,0,0,0c0,0,0,0,0,0c0,0,0,0,0,0c0,0,0,0,0,0c0,0,0,0,0,0c0,0,0,0,0,0c0,0,0,0,0,0c0,0,0,0,0,0c0,0,0,0,0,0   c0,0,0,0,0,0c0,0,0,0,0,0c0,0,0,0,0,0c0,0,0,0,0,0c0,0,0,0,0,0c0,0,0,0,0,0c0,0,0,0,0,0c0,0,0,0,0,0c0,0,0,0,0,0c0,0,0,0,0,0   c0,0,0,0,0,0c0,0,0,0,0,0c0,0,0,0,0,0c0,0,0,0,0,0c0,0,0,0,0,0s0,0,0,0c0,0-0.1,0-0.1,0c0,0,0,0,0.1,0c0,0,0,0,0,0   c-0.5-0.2-1.3-0.4-1.8-0.3l-0.5,0.1c-0.5,1.3-2.3,1.9-3.4,2.9c0,0,0,0-0.1,0c0,0,0,0,0,0c-0.1,0-0.1,0.1-0.2,0.2c0,0,0,0,0,0   c0,0,0,0-0.1,0c0,0,0-0.1,0-0.1c0,0,0,0,0,0c0-0.1,0-0.3-0.1-0.4c-0.4-1.1-1.9-1.4-2.9-1.3c-0.6,0-1.1,0.2-1.6,0.5   c-0.1,0.1-0.2,0.1-0.3,0.2c-0.6-0.8-1.6-1.3-2.7-1.3c-1.2,0-2.3,0.6-2.9,1.6c-0.8,0-1.6,0.2-2.3,0.6c-0.3,0.2-0.6,0.5-0.8,0.8   c0,0,0,0,0,0c0,0,0,0,0,0.1c0,0,0,0,0,0c-0.3,0.4-0.5,0.8-0.9,1.1c-0.4,0.4-1.1,0.5-1.5,0.8c0,0,0,0,0,0c0,0,0,0,0,0   c0,0-0.1,0-0.1,0.1c0,0,0,0-0.1,0.1c0,0,0,0,0,0c0,0,0,0,0,0c0,0,0,0,0,0c0,0,0,0,0,0c-0.1,0.1-0.2,0.2-0.2,0.3c0,0,0,0,0,0   c0,0,0,0,0,0c-0.2,0.9,1.5,1.2,2.3,1.3c1.2,0.1,2.4-0.1,3.6-0.1c1.1,0,1.8,0.6,2.6,1c0,0,0,0,0,0c0,0,0,0,0,0   c-0.5,0.2-1.3,0.4-1.7,0.7c-0.2,0.2-0.3,0.3-0.3,0.5c0,0,0,0,0,0c0,0,0,0,0,0c-0.1,0.4,0,0.7,0.1,1.2l0.1,0.1   C63.3,84.4,64.4,85,65.3,85.2C65.3,85.2,65.3,85.2,65.3,85.2C65.3,85.2,65.3,85.2,65.3,85.2C65.3,85.2,65.3,85.2,65.3,85.2   C65.3,85.2,65.3,85.2,65.3,85.2z M61.7,77c0.1-0.7,0.7-1.4,0.7-1.4l0,0l0,0c0,0,0.1,0,0.1,0c0,0,0,0,0,0c0,0,0,0,0,0   c0,0,0.1,0,0.1,0.1c0,0.1,0,0.2-0.1,0.2c-0.4,0.4-0.6,1.3-0.6,1.3l0,0.1l-0.1,0c0,0,0,0-0.1,0c0,0,0,0,0,0c0,0,0,0-0.1,0   c0,0-0.1,0-0.1-0.1L61.7,77L61.7,77z M63.3,80.8c-0.6-0.2-1.3-0.3-2-0.3c-0.7,0-1.5,0.1-2.2,0.1c-0.5,0-3.7-0.1-2.7-1.3   c0.7-0.6,1.4-0.6,2-1.3c0.6-0.7,0.9-1.4,1.9-1.7c0.3-0.1,0.7-0.2,1.1-0.2c-0.2,0.5-0.4,1-0.4,1.5c0,0.5,1.8,1,3.5,1   c1.7,0,3.5-0.7,3.5-1c0-0.7-0.2-1.3-0.6-1.8c0,0,0,0,0,0c1-0.6,1.8-0.9,2.9-0.4c0.6,0.3,1.1,0.8,1,1.5c0,0.1-0.1,0.2-0.1,0.3   c-1.1,0.6-2.4,0.7-3.2,2c-0.8,1.3-2.1,1.8-3.4,2.4C64.2,81.3,63.8,81,63.3,80.8z"/><path fill="#010101" d="M78.5,74C78.5,74,78.5,74,78.5,74C78.5,74,78.5,74,78.5,74C78.5,74,78.5,74,78.5,74   C78.5,74,78.5,74,78.5,74C78.5,74,78.5,73.9,78.5,74C78.5,73.9,78.5,73.9,78.5,74C78.5,73.9,78.5,73.9,78.5,74   C78.4,73.9,78.4,73.9,78.5,74C78.4,73.9,78.4,73.9,78.5,74C78.4,73.9,78.4,73.9,78.5,74C78.4,73.9,78.4,73.9,78.5,74   C78.4,73.9,78.4,73.9,78.5,74C78.4,73.9,78.4,73.9,78.5,74C78.4,73.9,78.4,73.9,78.5,74C78.4,73.9,78.4,73.9,78.5,74   C78.4,73.9,78.4,73.9,78.5,74C78.4,73.9,78.4,73.9,78.5,74C78.4,73.9,78.4,73.9,78.5,74C78.4,73.9,78.4,73.9,78.5,74   C78.4,73.9,78.4,73.9,78.5,74c-0.1,0-0.1-0.1-0.1-0.1c0,0,0,0,0,0c0,0,0,0,0,0c0,0,0,0,0,0c0,0,0,0,0,0c0,0,0,0,0,0c0,0,0,0,0,0   c0,0,0,0,0,0c0,0,0,0,0,0c0,0,0,0,0,0c0,0,0,0-0.1,0c0,0,0,0,0,0c0,0,0,0,0,0c0,0,0,0,0,0c0,0,0,0,0,0c0,0,0,0,0,0c0,0,0,0,0,0   c0,0,0,0,0,0c0,0,0,0,0,0c0,0,0,0,0,0c0,0,0,0,0,0c0,0,0,0,0,0c0,0,0,0,0,0c0,0,0,0,0,0c0,0,0,0,0,0c0,0,0,0,0,0c0,0,0,0,0,0   c0,0,0,0,0,0c0,0,0,0,0,0c0,0,0,0,0,0c0.1,0,0.2,0.1,0.3,0.1c0,0,0,0,0,0c0,0,0,0,0,0c0,0,0,0,0,0c0,0,0,0,0,0c0,0,0,0,0,0   C78.4,73.9,78.4,73.9,78.5,74C78.4,73.9,78.4,73.9,78.5,74C78.4,74,78.4,74,78.5,74C78.4,74,78.4,74,78.5,74   C78.4,74,78.4,74,78.5,74C78.4,74,78.4,74,78.5,74C78.4,74,78.4,74,78.5,74C78.4,74,78.4,74,78.5,74C78.4,74,78.4,74,78.5,74   C78.4,74,78.4,74,78.5,74C78.4,74,78.4,74,78.5,74C78.4,74,78.4,74,78.5,74C78.4,74,78.4,74,78.5,74C78.4,74,78.4,74,78.5,74   C78.4,74,78.4,74,78.5,74C78.4,74,78.4,74,78.5,74C78.4,74,78.4,74,78.5,74C78.4,74,78.4,74,78.5,74C78.4,74,78.4,74,78.5,74   C78.4,74,78.4,74,78.5,74C78.4,74,78.4,74,78.5,74C78.4,74,78.4,74,78.5,74C78.4,74,78.4,74,78.5,74C78.4,74,78.4,74,78.5,74   C78.4,74,78.4,74,78.5,74C78.4,74,78.4,74,78.5,74C78.4,74,78.4,74,78.5,74C78.4,74,78.4,74,78.5,74C78.4,74,78.4,74,78.5,74   C78.4,74,78.4,74,78.5,74C78.4,74,78.4,74,78.5,74C78.4,74,78.4,74,78.5,74C78.5,74,78.5,74,78.5,74C78.5,74,78.5,74,78.5,74   c-0.3,0.5-0.6,1-0.9,1.4c-0.1,0.1-0.1,0.1-0.2,0.2c0,0,0,0,0,0c0,0,0,0-0.1,0.1c0,0,0,0-0.1,0.1c0,0-0.1,0.1-0.1,0.1   c0,0-0.1,0.1-0.1,0.1c0,0,0,0-0.1,0c-0.3,0.2-0.7,0.4-1.1,0.5c-0.5,0.2-0.9,0.4-1.3,0.7c-0.8,0.6-1.6,1-2.5,1.4   c-0.2,0.1-0.5,0.2-0.7,0.4c-0.1,0.1-0.3,0.2-0.3,0.4C70.7,80,70.5,80.5,70,81c-0.3,0.3-0.7,0.6-1.3,0.8c-0.6,0.3-1.2,0.6-1.8,0.9   c-0.1,0.1-0.2,0.2-0.4,0.2c-1.2,0.8-0.9,1.1-0.7,2.3c0,0,0,0,0,0c0,0,0,0,0,0c0,0,0,0,0,0c0,0,0,0,0,0c0,0,0,0,0,0c0,0,0,0,0,0   c0,0,0,0,0,0c0,0,0,0,0,0c0,0,0,0,0,0c0,0,0,0,0,0c0,0,0,0,0,0c0,0,0,0,0,0c0,0,0,0,0,0c0,0,0,0,0,0c0,0,0,0,0,0c0,0,0,0,0,0   c0,0,0,0,0,0c0,0,0,0,0,0c0,0,0,0,0,0c0,0,0,0,0,0c0,0,0,0,0,0c0,0,0,0,0,0c0,0,0,0,0,0c0,0,0,0,0,0c0,0,0,0,0,0c0,0,0,0,0,0   c0,0,0,0,0,0c0,0,0,0,0,0c0,0,0,0,0,0c0,0,0,0,0,0c0,0,0,0,0,0c0,0,0,0,0,0c0,0,0,0,0,0c0,0,0,0,0,0c0,0,0,0,0,0   c-0.1,0-0.2,0-0.3-0.1c0,0,0,0,0,0c0,0,0,0,0,0c0,0,0,0,0,0c0,0,0,0,0,0c0,0,0,0,0,0c0,0,0,0,0,0c0,0,0,0,0,0c0,0,0,0,0,0   c0,0,0,0,0,0c0,0,0,0,0,0c0,0,0,0,0,0c0,0,0,0,0,0c0,0,0,0,0,0c0,0,0,0,0,0c0,0,0,0,0,0c0,0,0,0,0,0c0,0,0,0,0,0c0,0,0,0,0,0   c0,0,0,0,0,0c0,0,0,0,0,0c0,0,0,0,0,0c0,0,0,0,0,0c0,0,0,0,0,0c0,0,0,0,0,0c0,0,0,0,0,0c0,0,0,0,0,0c0,0,0,0,0,0c0,0,0,0,0,0   c0,0,0,0,0,0c0,0,0,0,0,0c0,0,0,0,0,0c0,0,0,0,0,0c0,0,0,0,0,0c0,0,0,0,0,0c0,0,0,0,0,0c0,0,0,0,0,0c0,0,0,0,0,0c0,0,0,0,0,0   c0,0,0,0,0,0c0,0,0,0,0,0c0,0,0,0,0,0c0,0,0,0,0,0c0,0,0,0,0,0c0,0,0,0,0,0c0,0,0,0,0,0c0,0,0,0,0,0c0,0,0,0,0,0c0,0,0,0,0,0   c0,0,0,0,0,0c0,0,0,0,0,0c0,0,0,0,0,0c0,0,0,0,0,0c0,0,0,0,0,0c0,0,0,0,0,0c0,0,0,0,0,0c0,0,0,0,0,0c0,0,0,0,0,0c0,0,0,0,0,0   c0,0,0,0,0,0c0,0,0,0,0,0c0,0,0,0,0,0c0,0,0,0,0,0c0,0,0,0,0,0c0,0,0,0,0,0c0,0,0,0,0,0c0,0,0,0,0,0c0,0,0,0,0,0c0,0,0,0,0,0   c0,0,0,0,0,0c0,0,0,0,0,0c0,0,0,0,0,0c0,0,0,0,0,0c0,0,0,0,0,0c0,0,0,0,0,0c0,0,0,0,0,0c0,0,0,0,0,0c0,0,0,0,0,0c0,0,0,0,0,0   c0,0,0,0,0,0c0,0,0,0,0,0c0,0,0,0,0,0c0,0,0,0,0,0c0,0,0,0,0,0c0,0,0,0,0,0c0,0,0,0,0,0c0,0,0,0,0,0c0,0,0,0,0,0c0,0,0,0,0,0   c0,0,0,0,0,0c0,0,0,0,0,0c0,0,0,0,0,0c0,0,0,0,0,0c0,0,0,0,0,0c0,0,0,0,0,0c0,0,0,0,0,0c0,0,0,0,0,0c0,0,0,0,0,0c0,0,0,0,0,0   c0,0,0,0,0,0c0,0,0,0,0,0c0,0,0,0,0,0c0,0,0,0,0,0c0,0,0,0,0,0c0,0,0,0,0,0c0,0,0,0,0,0c0,0,0,0,0,0c0,0,0,0,0,0c0,0,0,0,0,0   c0,0,0,0,0,0c0,0,0,0,0,0c0,0,0,0,0,0c0,0,0,0,0,0c0,0,0,0,0,0c0,0,0,0,0,0c0,0,0,0,0,0c0,0,0,0,0,0c0,0,0,0,0,0c0,0,0,0,0,0   c0,0,0,0,0,0c0,0,0,0,0,0c0,0,0,0,0,0c0,0,0,0,0,0c0,0,0,0,0,0c0,0,0,0,0,0c0,0,0,0,0,0c0,0,0,0,0,0c0,0,0,0,0,0c0,0,0,0,0,0   c0,0,0,0,0,0c0,0,0,0,0,0c0,0,0,0,0,0c0,0,0,0,0,0c0,0,0,0,0,0c0,0,0,0,0,0c0,0,0,0,0,0c0,0,0,0,0,0c0,0,0,0,0,0c0,0,0,0,0,0   c0,0,0,0,0,0c0,0,0,0,0,0c0,0,0,0,0,0c0,0,0,0,0,0c0,0,0,0,0,0c0,0,0,0,0,0c0,0,0,0,0,0c0,0,0,0,0,0c0,0,0,0,0,0c0,0,0,0,0,0   c0,0,0,0,0,0c0,0,0,0,0,0c0,0,0,0,0,0c0,0,0,0,0,0c0,0,0,0,0,0c0,0,0,0,0,0c0,0,0,0,0,0c0,0,0,0,0,0c0,0,0,0,0,0c0,0,0,0,0,0   c0,0,0,0,0,0c0,0,0,0,0,0c-0.1-0.6-0.3-0.9-0.2-1.3c0.1-0.2,0.2-0.3,0.3-0.5c0.7-0.7,1.9-1.1,2.8-1.5c0.1,0,0.2-0.1,0.2-0.1   c0,0,0.1,0,0.1,0c0,0,0,0,0,0c0.4-0.2,0.8-0.5,1.1-0.8c0,0,0.1-0.1,0.1-0.1c0,0,0.1-0.1,0.1-0.1c0,0,0,0,0,0c0-0.1,0.1-0.1,0.1-0.2   c0,0,0,0,0,0c0.1-0.1,0.1-0.3,0.2-0.4c0,0,0,0,0,0c0,0,0,0,0-0.1c0,0,0,0,0,0c0-0.1,0.1-0.3,0.2-0.4c0,0,0,0,0,0   c0.2-0.3,0.4-0.6,1.1-0.9c1.5-0.4,2.3-1.6,3.8-2.1c1.3-0.4,1.8-1.2,2.4-2.4c0,0,0,0,0,0C78.9,73.9,78.6,74.1,78.5,74z"/><path fill="#010101" d="M81.7,74.9C81.7,74.9,81.7,74.9,81.7,74.9C81.7,74.9,81.7,74.9,81.7,74.9C81.7,74.9,81.7,74.9,81.7,74.9   C81.7,74.9,81.7,74.9,81.7,74.9C81.7,74.9,81.7,74.9,81.7,74.9C81.6,74.9,81.6,74.9,81.7,74.9C81.6,74.9,81.6,74.9,81.7,74.9   C81.6,74.9,81.6,74.9,81.7,74.9c-0.1,0-0.1,0-0.1,0c0,0,0,0,0,0c0,0,0,0,0,0c0,0,0,0,0,0c0,0,0,0,0,0c0,0,0,0,0,0c0,0,0,0,0,0   c0,0,0,0,0,0c0,0,0,0,0,0c0,0,0,0,0,0c0,0,0,0,0,0c0,0,0,0,0,0c0,0,0,0,0,0c0,0,0,0,0,0c0,0,0,0,0,0c0,0,0,0,0,0c0,0,0,0,0,0   c0,0,0,0,0,0c0,0,0,0,0,0c0,0,0,0,0,0c0,0,0,0,0,0c0,0,0,0,0,0c0,0,0,0,0,0c0,0,0,0,0,0c0,0,0,0,0,0c0,0,0,0,0,0c0,0,0,0,0,0   c0,0,0,0,0,0c0,0,0,0,0,0c0,0,0,0,0,0c0,0,0,0,0,0c0,0,0,0,0,0c0,0,0,0,0,0c0,0,0,0,0,0c0,0,0,0,0,0c0,0,0,0,0,0c0,0,0,0,0,0   c0,0,0,0,0,0c0,0,0,0,0,0c0,0,0,0,0,0c0,0,0,0,0,0c0,0,0,0,0,0c0,0,0,0,0,0c0,0,0,0,0,0c0,0,0,0,0,0c0,0,0,0,0,0c0,0,0,0,0,0   c0,0,0,0,0,0c0,0,0,0,0,0c0,0,0,0,0,0c0,0,0,0,0,0c0,0,0,0,0,0c0,0,0,0,0,0c0,0,0,0,0,0c0,0,0,0,0,0c0,0,0,0,0,0c0,0,0,0,0,0   c0,0,0,0,0,0c0,0,0,0,0,0c0,0,0,0,0,0c0,0,0,0,0,0c0,0,0,0,0,0c0,0,0,0,0,0c0,0,0,0,0,0c0,0,0,0,0,0c0,0,0,0,0,0c0,0,0,0,0,0   c0,0,0,0,0,0c0,0,0,0,0,0c0,0,0,0,0,0c0,0,0,0,0,0c0,0,0,0,0,0c0,0,0,0,0,0c0,0,0,0,0,0c0,0,0,0,0,0c0,0,0,0,0,0c0,0,0,0,0,0   c0,0,0,0,0,0c0,0,0,0,0,0c0,0,0,0,0,0c0,0,0,0,0,0c0,0,0,0,0,0c0,0,0,0,0,0c0,0,0,0,0,0c0,0,0,0,0,0c0,0,0,0,0,0c0,0,0,0,0,0   c0,0,0,0,0,0c0,0,0,0,0,0c0,0,0,0,0,0c0,0,0,0,0,0c0,0,0,0,0,0c0,0,0,0,0,0c0,0,0,0,0,0c0,0,0,0,0,0c0,0,0,0,0,0c0,0,0,0,0,0   c0,0,0,0,0,0c0,0,0,0,0,0c0,0,0,0,0,0c0,0,0,0,0,0c0,0,0,0,0,0c0,0,0,0,0,0c0,0,0,0,0,0c0,0,0,0,0,0c0,0,0,0,0,0   c-0.1,0-0.2,0-0.2-0.1c-0.1,0.3-0.3,0.6-0.5,0.9c-0.3,0.4-0.7,0.7-0.9,0.9c-0.2,0.1-0.3,0.3-0.4,0.4c0,0,0,0,0,0c0,0,0,0,0,0   c0,0,0,0,0,0c0,0,0,0,0,0c0,0,0,0,0,0c0,0,0,0,0,0c-0.1,0.1-0.1,0.3-0.2,0.4c0,0,0,0,0,0c0,0,0,0,0,0c0,0,0,0,0,0   c0,0,0,0.1-0.1,0.1c0,0,0,0,0,0.1c0,0,0,0,0,0c-0.1,0.1-0.2,0.2-0.3,0.3c-0.8,0.7-1.3,0.4-2.2,0.6c-1.5,0.5-2,0.9-2.2,1.4   c0,0,0,0,0,0c0,0,0,0,0,0c0,0,0,0,0,0c0,0,0,0,0,0c-0.1,0.3-0.1,0.5-0.1,0.7c-0.1,0.3-0.5,0.7-0.9,0.9c-0.5,0.3-1.2,0.6-1.5,0.6   c-0.8,0.1-1.4,0.3-1.9,0.8c0,0,0,0,0,0c0,0-0.1,0.1-0.1,0.2c0,0,0,0,0,0c0,0,0,0,0,0.1c0,0.1-0.1,0.1-0.1,0.2c0,0,0,0,0,0   c0,0,0,0,0,0c0,0,0,0,0,0c-0.1,0.2-0.2,0.5-0.3,0.9l0.1,0.1c0.2,0.1,0.4,0,0.7,0c0,0,0,0,0,0c0,0,0,0,0,0c0,0,0,0,0,0c0,0,0,0,0,0   c0,0,0,0,0,0c0,0,0,0,0,0c0,0,0,0,0,0c0,0,0,0,0,0c0,0,0,0,0,0c0,0,0,0,0,0c0,0,0,0,0,0c0,0,0,0,0,0c0,0,0,0,0,0c0,0,0,0,0,0   c0,0,0,0,0,0c0,0,0,0,0,0c0,0,0,0,0,0c0,0,0,0,0,0c0,0,0,0,0,0c0,0,0,0,0,0c0,0,0,0,0,0c0,0,0,0,0,0c0,0,0,0,0,0c0,0,0,0,0,0   c0,0,0,0,0,0c0,0,0,0,0,0c0,0,0,0,0,0c0,0,0,0,0,0c0,0,0,0,0,0c0,0,0,0,0,0c0,0,0,0,0,0c0,0,0,0,0,0c0,0,0,0,0.1,0c0,0,0,0,0,0   c0,0,0,0,0.1,0c0,0,0,0,0,0c0,0,0.1,0,0.1,0c0,0,0,0,0,0c0.1,0,0.3,0,0.4,0.1c0,0,0,0,0,0c0,0,0,0,0,0c0,0,0,0,0,0c0,0,0,0,0,0   c0,0,0,0,0,0c0,0,0,0,0,0c0,0,0,0,0,0c0,0,0,0,0,0c0,0,0,0,0,0c0,0,0,0,0,0c0,0,0,0,0,0c0,0,0,0,0,0c0,0,0,0,0,0c0,0,0,0,0,0   c0,0,0,0,0,0c0,0,0,0,0,0c0,0,0,0,0,0c0,0,0,0,0,0c0,0,0,0,0,0c0,0,0,0,0,0c0,0,0,0,0,0c0,0,0,0,0,0c0,0,0,0,0,0c0,0,0,0,0,0   c0,0,0,0,0,0c0,0,0,0,0,0c0,0,0,0,0,0c0,0,0,0,0,0c0,0,0,0,0,0c0,0,0,0,0,0c0,0,0,0,0,0c0,0,0,0,0,0c0,0,0,0,0,0c0,0,0,0,0,0   c0,0,0,0,0,0c0,0,0,0,0,0c0,0,0,0,0,0c0,0,0,0,0,0c0,0,0,0,0,0c0,0,0,0,0,0c0,0,0,0,0,0c0,0,0,0,0,0c0,0,0,0,0,0c0,0,0,0,0,0   c0,0,0,0,0,0c0,0,0,0,0,0c0,0,0,0,0,0c0,0,0,0,0,0c0,0,0,0,0,0c0,0,0,0,0,0c0,0,0,0,0,0c0,0,0,0,0,0c0,0,0,0,0,0c0,0,0,0,0,0   c0,0,0,0,0,0c0,0,0,0,0,0c0,0,0,0,0,0c0,0,0,0,0,0c0-0.1,0.1-0.3,0.3-0.5c0.2-0.3,0.4-0.5,0.4-0.5c0,0,0,0,0.1-0.1   c0.2-0.2,0.6-0.3,0.9-0.5c1.3-0.6,1.4-0.2,2.2-1.4c0.1-0.2,0.3-0.4,0.5-0.7c0,0,0,0,0-0.1c0,0,0,0,0,0c0,0,0,0,0,0c0,0,0,0,0-0.1   c0,0,0.1-0.1,0.1-0.1c0,0,0,0,0,0c0,0,0,0,0-0.1c0,0,0.1-0.1,0.1-0.1c0,0,0,0,0,0c0,0,0.1-0.1,0.1-0.1c0,0,0,0,0,0   c0.2-0.2,0.4-0.4,0.6-0.5c0.5-0.3,1.3-0.3,1.9-0.5c0,0,0,0,0.1,0c0,0,0,0,0,0c0,0,0,0,0,0c0,0,0,0,0,0c0,0,0,0,0,0c0,0,0,0,0,0   c0,0,0,0,0,0c0,0,0,0,0,0c0,0,0,0,0,0c0,0,0,0,0,0c0,0,0,0,0,0c0,0,0,0,0,0c0,0,0,0,0,0c0,0,0,0,0,0c0,0,0,0,0,0c0,0,0,0,0,0   c0,0,0,0,0,0c0,0,0,0,0,0c0,0,0,0,0,0c0,0,0,0,0,0c0,0,0,0,0,0c0,0,0,0,0,0c0,0,0,0,0,0c0,0,0,0,0,0c0,0,0,0,0,0c0,0,0,0,0,0   c0,0,0,0,0,0c0,0,0,0,0,0c0,0,0,0,0,0c0,0,0,0,0,0c0,0,0,0,0,0c0,0,0,0,0,0c0,0,0,0,0,0c0,0,0,0,0,0c0,0,0,0,0,0c0,0,0,0,0,0   c0,0,0,0,0,0c0,0,0,0,0,0c0,0,0,0,0,0c0,0,0,0,0,0c0,0,0,0,0,0c0,0,0,0,0,0c0,0,0,0,0,0c0,0,0,0,0,0c0,0,0,0,0,0c0,0,0,0,0,0   c0,0,0,0,0,0c0,0,0,0,0,0c0,0,0,0,0,0c0,0,0,0,0,0c0,0,0,0,0,0c0,0,0,0,0,0c0,0,0,0,0,0c0,0,0,0,0,0c0,0,0,0,0,0c0,0,0,0,0,0   c0,0,0,0,0,0c0,0,0,0,0,0c0,0,0,0,0,0c0,0,0,0,0,0c0,0,0,0,0,0c0,0,0,0,0,0c0,0,0,0,0,0c0,0,0,0,0,0c0,0,0,0,0,0c0,0,0,0,0,0   c0,0,0,0,0,0c0,0,0,0,0,0c0,0,0,0,0,0c0,0,0,0,0,0c0,0,0,0,0,0c0,0,0,0,0,0c0,0,0,0,0,0c0,0,0,0,0,0c0,0,0,0,0,0c0,0,0,0,0,0   c0,0,0,0,0,0c0,0,0,0,0,0c0,0,0,0,0,0c0,0,0,0,0,0c0,0,0,0,0,0c0,0,0,0,0,0c0,0,0,0,0,0c0,0,0,0,0,0c0,0,0,0,0,0c0,0,0,0,0,0   c0,0,0,0,0,0c0,0,0,0,0,0c0,0,0,0,0,0c0,0,0,0,0,0c0,0,0,0,0,0c0,0,0,0,0,0c0,0,0,0,0,0c0,0,0,0,0,0c0,0,0,0,0,0c0,0,0,0,0,0   c0,0,0,0,0,0c0,0,0,0,0,0c0,0,0,0,0,0c0,0,0,0,0,0c0,0,0,0,0,0c0,0,0,0,0,0c0,0,0,0,0,0c0,0,0,0,0,0c0,0,0,0,0,0c0,0,0,0,0,0   c0,0,0,0,0,0c0,0,0,0,0,0c0,0,0,0,0,0c0,0,0,0,0,0c0,0,0,0,0,0c0,0,0,0,0,0c0,0,0,0,0,0c0,0,0,0,0,0c0,0,0,0,0,0c0,0,0,0,0,0   c0,0,0,0,0,0c0,0,0,0,0,0c0,0,0,0,0,0c0,0,0,0,0,0c0,0,0,0,0,0c0,0,0,0,0,0c0,0,0,0,0,0c0,0,0,0,0,0c0,0,0,0,0,0c0,0,0,0,0,0   c0,0,0,0,0,0c0,0,0,0,0,0c0,0,0,0,0,0c0,0,0,0,0,0c0,0,0,0,0,0c0,0,0,0,0,0c0,0,0,0,0,0c0,0,0,0,0,0c0,0,0,0,0,0c0,0,0,0,0,0   c0,0,0,0,0,0c0,0,0,0,0,0c0,0,0,0,0,0c0,0,0,0,0,0c0,0,0,0,0,0c0,0,0,0,0,0c0,0,0,0,0,0c0,0,0,0,0,0c0,0,0,0,0,0c0,0,0,0,0,0   c0,0,0,0,0,0c0,0,0,0,0,0c0,0,0,0,0,0c0,0,0,0,0,0c0,0,0,0,0,0c0,0,0,0,0,0c0,0,0,0,0,0c0,0,0,0,0,0c0,0,0,0,0,0c0,0,0,0,0,0   c0,0,0,0,0,0c0,0,0,0,0,0c0,0,0,0,0,0c0,0,0,0,0,0c0,0,0,0,0,0c0,0,0,0,0,0c0,0,0,0,0,0c0,0,0,0,0,0c0,0,0,0,0,0c0,0,0,0,0,0   c0,0,0,0,0,0c0,0,0,0,0,0c0,0,0,0,0,0c0,0,0,0,0,0c0,0,0,0,0,0c0,0,0,0,0,0c0,0,0,0,0,0c0,0,0,0,0,0c0,0,0,0,0,0c0,0,0,0,0,0   c0,0,0,0,0,0c0,0,0,0,0,0c0,0,0,0,0,0c0,0,0,0,0,0c0,0,0,0,0,0c0,0,0,0,0,0c0,0,0,0,0,0c0,0,0,0,0,0c0,0,0,0,0,0c0,0,0,0,0,0   c0,0,0,0,0,0c0,0,0,0,0,0c0,0,0,0,0,0c0,0,0,0,0,0c0,0,0,0,0,0c0,0,0,0,0,0c0,0,0,0,0,0c0,0,0,0,0,0c0,0,0,0,0,0c0,0,0,0,0,0   c0,0,0,0,0,0c0,0,0,0,0,0c0,0,0,0,0,0c0,0,0,0,0,0c0,0,0,0,0,0c0,0,0,0,0,0c0,0,0,0,0,0c0,0,0,0,0,0c0,0,0,0,0,0c0,0,0,0,0,0   c0,0,0,0,0,0c0,0,0,0,0,0c0,0,0,0,0,0c0,0,0,0,0,0c0,0,0,0,0,0c0,0,0,0,0,0c0,0,0,0,0,0c0,0,0,0,0,0c0,0,0,0,0,0c0,0,0,0,0,0   c0,0,0,0,0,0c0,0,0,0,0,0c0,0,0,0,0,0c0,0,0,0,0,0c0,0,0,0,0,0c0,0,0,0,0,0c0,0,0,0,0,0c0,0,0,0,0,0c0,0,0,0,0,0c0,0,0,0,0,0   c0,0,0,0,0,0c0,0,0,0,0,0c0,0,0,0,0,0c0,0,0,0,0,0c0,0,0,0,0,0c0,0,0,0,0,0c0,0,0,0,0,0c0,0,0,0,0,0c0,0,0,0,0,0c0,0,0,0,0,0   c0,0,0,0,0,0c0,0,0,0,0,0c0,0,0,0,0,0c0,0,0,0,0,0c0,0,0,0,0,0c0,0,0,0,0,0c0,0,0,0,0,0c0,0,0,0,0,0c0,0,0,0,0,0c0,0,0,0,0,0   c0,0,0,0,0,0C81.7,75,81.7,75,81.7,74.9C81.7,75,81.7,75,81.7,74.9C81.7,75,81.7,75,81.7,74.9C81.7,75,81.7,75,81.7,74.9   C81.7,74.9,81.7,74.9,81.7,74.9C81.7,74.9,81.7,74.9,81.7,74.9L81.7,74.9C81.7,74.9,81.7,74.9,81.7,74.9z"/><path fill="#010101" d="M81.9,74.9C81.9,74.9,81.9,74.9,81.9,74.9C81.9,74.9,81.9,74.9,81.9,74.9C81.9,74.9,81.9,74.9,81.9,74.9   C81.9,74.9,81.9,74.9,81.9,74.9C81.8,74.9,81.8,74.9,81.9,74.9C81.8,74.9,81.8,74.9,81.9,74.9C81.8,74.9,81.8,74.9,81.9,74.9   C81.8,74.9,81.8,74.9,81.9,74.9C81.8,74.9,81.8,74.9,81.9,74.9C81.8,74.9,81.8,74.9,81.9,74.9C81.8,74.9,81.8,74.9,81.9,74.9   C81.8,74.9,81.8,74.9,81.9,74.9c-0.1,0-0.1,0-0.1,0c0,0,0,0,0,0c0,0,0,0,0,0c0,0,0,0,0,0c0,0,0,0,0,0c0,0,0,0,0,0c0,0,0,0,0,0   c0,0,0,0,0,0c0,0,0,0,0,0c0,0,0,0,0,0c0,0,0,0,0,0c0,0,0,0,0,0c0,0,0,0,0,0c0,0,0,0,0,0c0,0,0,0,0,0c0,0,0,0,0,0c0,0,0,0,0,0   c0,0,0,0,0,0c0,0,0,0,0,0c0,0,0,0,0,0c0,0,0,0,0,0c0,0,0,0,0,0l0.5,0.1c-0.4,1.4-1.7,2.7-2.7,3.7c-0.2,0.2-0.5,0.4-0.7,0.5   c-0.6,0.3-1.2,0.5-2,0.7c-0.4,0.1-0.7,0.2-1,0.4c-0.1,0.1-0.2,0.1-0.3,0.2c-0.2,0.2-0.4,0.4-0.6,0.6c-0.3,0.3-0.5,0.7-0.8,1.1   c0,0,0,0,0,0c0,0-0.1,0.1-0.1,0.1c0,0,0,0,0,0.1c0,0,0,0,0,0c0,0,0,0-0.1,0.1c-0.4,0.5-0.9,0.7-1.5,0.9c0,0-0.1,0-0.1,0   c0,0,0,0,0,0c0,0,0,0,0,0c0,0,0,0,0,0c0,0,0,0,0,0c0,0,0,0,0,0c0,0,0,0,0,0c0,0,0,0,0,0c0,0,0,0,0,0c0,0,0,0,0,0c0,0,0,0,0,0   c0,0,0,0,0,0c0,0,0,0,0,0c0,0,0,0,0,0c0,0,0,0,0,0c0,0,0,0,0,0c0,0,0,0,0,0c0,0,0,0,0,0c0,0,0,0,0,0c0,0,0,0,0,0c0,0,0,0,0,0   c0,0,0,0,0,0c0,0,0,0,0,0c0,0,0,0,0,0c0,0,0,0,0,0c0,0,0,0,0,0c0,0,0,0,0,0c0,0,0,0,0,0c0,0,0,0,0,0c0,0,0,0,0,0c0,0,0,0,0,0   c0,0,0,0,0,0c0,0,0,0,0,0c0,0,0,0,0,0c0,0,0,0,0,0c0,0,0,0,0,0c0,0,0,0,0,0c0,0,0,0,0,0c0,0,0,0,0,0c0,0,0,0,0,0c0,0,0,0,0,0   c0,0,0,0,0,0c0,0,0,0,0,0c0,0,0,0,0,0c0,0,0,0,0,0c0,0,0,0,0,0c0,0,0,0,0,0c0,0,0,0,0,0c0,0,0,0,0,0c0,0,0,0,0,0c0,0,0,0,0,0   c0,0,0,0,0,0c0,0,0,0,0,0c0,0,0,0,0,0c0,0,0,0,0,0c0,0,0,0,0,0c0,0,0,0,0,0c0,0,0,0,0,0c0,0,0,0,0,0c0,0,0,0,0,0c0,0,0,0,0,0   c0,0,0,0,0,0c0,0,0,0,0,0c0,0,0,0,0,0c0,0,0,0,0,0c0,0,0,0,0,0c0,0,0,0,0,0c0,0,0,0,0,0c0,0,0,0,0,0c0,0,0,0,0,0c0,0,0,0,0,0   c0,0,0,0,0,0c0,0,0,0,0,0c0,0,0,0,0,0c0,0,0,0,0,0c0,0,0,0,0,0c0,0,0,0,0,0c0,0,0,0,0,0c0,0,0,0,0,0c0,0,0,0,0,0c0,0,0,0,0,0   c0,0,0,0,0,0c0,0,0,0,0,0c0,0,0,0,0,0c0,0,0,0,0,0c0,0,0,0,0,0c0,0,0,0,0,0c0,0,0,0,0,0c0,0,0,0,0,0c0,0,0,0,0,0c0,0,0,0,0,0   c0,0,0,0,0,0c0,0,0,0,0,0c0,0,0,0,0,0c0,0,0,0,0,0c0,0,0,0,0,0c0,0,0,0,0,0c0,0,0,0,0,0c0,0,0,0,0,0c0,0,0,0,0,0c0,0,0,0,0,0   c0,0,0,0,0,0c0,0,0,0,0,0c0,0,0,0,0,0c0,0,0,0,0,0c0,0,0,0,0,0c0,0,0,0,0,0c0,0,0,0,0,0c0,0,0,0,0,0c0,0,0,0,0,0c0,0,0,0,0,0   c0,0,0,0,0,0c0,0,0,0,0,0c0,0,0,0,0,0c0,0,0,0,0,0c0,0,0,0,0,0c0,0,0,0,0,0c0,0,0,0,0,0c0,0,0,0,0,0c0,0,0,0,0,0c0,0,0,0,0,0   c0,0,0,0,0,0c0,0,0,0,0,0c0,0,0,0,0,0c0,0,0,0,0,0c0,0,0,0,0,0c0,0,0,0,0,0c0,0,0,0,0,0c0,0,0,0,0,0c0,0,0,0,0,0c0,0,0,0,0,0   c0,0,0,0,0,0c0,0,0,0,0,0c0,0,0,0,0,0c0,0,0,0,0,0c0,0,0,0,0,0c0,0,0,0,0,0c0,0,0,0,0,0c0,0,0,0,0,0c0,0,0,0,0,0c0,0,0,0,0,0   c0,0,0,0,0,0c0,0,0,0,0,0c0,0,0,0,0,0c0,0,0,0,0,0c0,0,0,0,0,0c0,0,0,0,0,0c0,0,0,0,0,0c0,0,0,0,0,0c0,0,0,0,0,0c0,0,0,0,0,0   c0,0,0,0,0,0c0,0,0,0,0,0c0,0,0,0,0,0c0,0,0,0,0,0c0,0,0,0,0,0c0,0,0,0,0,0c0,0,0,0,0,0c0,0,0,0,0,0c0,0,0,0,0,0c0,0,0,0,0,0   c0,0,0,0,0,0c0,0,0,0,0,0c0,0,0,0,0,0c0,0,0,0,0,0c0,0,0,0,0,0c0,0,0,0,0,0c0,0,0,0,0,0c0,0,0,0,0,0c0,0,0,0,0,0c0,0,0,0,0,0   c0,0,0,0,0,0c0,0,0,0,0,0c0,0,0,0,0,0c0,0,0,0,0,0c0,0,0,0,0,0c0,0,0,0,0,0c0,0,0,0,0,0c0,0,0,0,0,0c0,0,0,0,0,0c0,0,0,0,0,0   c0,0,0,0,0,0c0,0,0,0,0,0c0,0,0,0,0,0c0,0,0,0,0,0c0,0,0,0,0,0c0,0,0,0,0,0c0,0,0,0,0,0c0,0,0,0,0,0c0,0,0,0,0,0c0,0,0,0,0,0   c0,0,0,0,0,0c0,0,0,0,0,0c0,0,0,0,0,0c0,0,0,0,0,0c0,0,0,0,0,0c0,0,0,0,0,0c0,0,0,0,0,0c0,0,0,0,0,0c0,0,0,0,0,0c0,0,0,0,0,0   c0,0,0,0,0,0c0,0,0,0,0,0c0,0,0,0,0,0c0,0,0,0,0,0c0,0,0,0,0,0c0,0,0,0,0,0c0,0,0,0,0,0c0,0,0,0,0,0c0,0,0,0,0,0c0,0,0,0,0,0   c0,0,0,0,0,0c0,0,0,0,0,0c0,0,0,0,0,0c0,0,0,0,0,0c0,0,0,0,0,0c0,0,0,0,0,0c0,0,0,0,0,0c0,0,0,0,0,0c0,0,0,0,0,0c0,0,0,0,0,0   c0,0,0,0,0,0c0,0,0,0,0,0c0,0,0,0,0,0c0,0,0,0,0,0c0,0,0,0,0,0c0,0,0,0,0,0c0,0,0,0,0,0c0,0,0,0,0,0c0,0,0,0,0,0c0,0,0,0,0,0   c0,0,0,0,0,0c0,0,0,0,0,0c0,0,0,0,0,0c0,0,0,0,0,0c0,0,0,0,0,0c0,0,0,0,0,0c0,0,0,0,0,0c0,0,0,0,0,0c0,0,0,0,0,0c0,0,0,0,0,0   c0,0,0,0,0,0c0,0,0,0,0,0c0,0,0,0,0,0c0,0,0,0,0,0c0,0,0,0,0,0c0,0,0,0,0,0c0.8-1.3,2-1.2,3.1-2c0.3-0.2,0.5-0.6,0.8-0.9   c0,0,0-0.1,0.1-0.1c0.1-0.1,0.2-0.3,0.3-0.4c0.3-0.4,0.6-0.7,0.9-0.9c0,0,0,0,0,0c0,0,0,0,0.1,0c0,0,0,0,0,0c0,0,0,0,0.1,0   c0.5-0.3,1.1-0.5,1.7-0.6c0.4-0.1,0.9-0.3,1.3-0.6c0,0,0.1,0,0.1-0.1c0,0,0,0,0.1,0c0,0,0,0,0.1,0c0,0,0,0,0,0   c0.1-0.1,0.2-0.1,0.2-0.2c0,0,0.1-0.1,0.1-0.1c1-0.8,1.9-2,2.4-3.1c0-0.1,0.1-0.2,0.1-0.2c0,0,0,0,0,0c0,0,0-0.1,0-0.1c0,0,0,0,0,0   c0-0.1,0.1-0.2,0.1-0.3c0,0,0,0,0,0C82.6,75,82.1,74.9,81.9,74.9z"/><path fill="#010101" d="M46,49.7c0,0,1.7,1.3,0.6-0.7c-0.2-0.3-0.3-0.5-0.4-0.7c-0.9-0.6-1.9-1.1-2.8-1.6C45,49.1,46,49.7,46,49.7z   "/><path fill="#010101" d="M13.7,31.4c-0.1-0.2-0.3-0.4-0.5-0.3l-0.2,0.1c-0.2,0.1-0.4,0.3-0.3,0.5l0.1,0.4l1.1-0.3L13.7,31.4z"/><path fill="#010101" d="M13.9,32.3l-1.1,0.3l-11.2,3c0,0,0,0,0.1,0.1c0.1,0.1,0.3,0.2,0.6,0.2c0.5,0.1,1.2,0.2,2.1,0.2   c1.2,0,2.6-0.1,4.2-0.4c1.5-0.2,3.1-0.6,4.8-1c0.1,0,0.3-0.1,0.4-0.1c0.2-0.1,0.4-0.1,0.6-0.2c1.4-0.4,2.7-0.8,3.9-1.3   c1.4-0.5,2.6-1,3.6-1.6c1-0.5,1.8-1,2.3-1.5c0.3-0.3,0.5-0.5,0.6-0.8L13.9,32.3z"/><g><path fill="#010101" d="M77.6,14.6l1.1-0.3L78.6,14c-0.1-0.2-0.3-0.4-0.5-0.3l-0.2,0.1c-0.2,0.1-0.4,0.3-0.3,0.5L77.6,14.6z"/><path fill="#010101" d="M80.5,20.8l-0.9-3.3c-0.2,0.1-0.4,0.1-0.6,0.2c-0.2,0-0.3,0.1-0.5,0.1l0.8,3.1c-0.4,0.1-0.6,0.1-0.6,0.1    l-19.4,5.2l-2.8-3.4c-0.3-0.3-0.9-0.5-1.3-0.4l-5.5,1.5c-1.2-0.7-2.6-1-4-0.6c-1.4,0.4-2.5,1.3-3.2,2.6l-5.1,1.4    c-0.4,0.1-0.9,0.6-1,1l-1,4.4l-19.3,5.2c0,0-0.3,0.1-0.7,0.3L14.7,35c-0.2,0.1-0.4,0.1-0.6,0.2c-0.1,0-0.3,0.1-0.4,0.1l0.9,3.3    c-1.3,0.6-2.9,1.7-2.6,2.8c0.5,1.9,2.6,5,4.3,4.6c1.7-0.5,1.8-1.4,1.8-1.4l0.7-5.5c0,0,9.2-2.5,20.2-5.4l2.8,4.3    c-0.3,1.3-0.5,2.8-0.3,4.3c0.3,0.2,0.7,0.5,1.1,0.8c-0.3-1.5-0.2-3.3,0.2-4.9l13.5-3.9c1.7,1.3,3.9,3.5,4.2,5.6    c0.4,3.5-0.3,3.5,0,5.7c0.3,2.2,0.8,0.2,0.8,0.2s0.6-1.5,0.1-5.8c-0.3-2.7-2.6-5-4.4-6.3l0.1-4.9c10.8-2.9,19.6-5.3,19.6-5.3    s3.2,3.2,3.9,4.3c0.7,1.1,2.2,2.1,3.2,0.1c0.9-2,0.8-3.7,0.3-5.8C83.6,20.8,81.8,20.7,80.5,20.8z"/><path fill="#010101" d="M78.9,14.9l-1.1,0.3l-11.1,3c0,0,0,0,0.1,0.1c0.1,0.1,0.3,0.2,0.6,0.2c0.5,0.1,1.2,0.2,2.1,0.2    c1.2,0,2.6-0.1,4.2-0.4c1.5-0.2,3.1-0.6,4.7-1c0.2,0,0.3-0.1,0.5-0.1c0.2-0.1,0.4-0.1,0.6-0.2c1.4-0.4,2.7-0.8,4-1.3    c1.4-0.5,2.6-1,3.6-1.6c1-0.5,1.8-1,2.3-1.5c0.3-0.3,0.5-0.5,0.6-0.8L78.9,14.9z"/></g><path fill="#010101" d="M69.8,57.6c0-0.1-0.1-0.3-0.3-0.4L62,52.3c-0.5-0.3-1.1-0.5-1.8-0.5c0,0-0.1,0-0.1,0L56.8,52   c0,0-0.2,0-0.5,0c-0.8,0-2.2-0.1-3.1-0.7l0,0c-2.1-1.6-5.4-3.9-8.3-6.1c-0.8-0.6-1.5-1.1-2.2-1.6c-0.4-0.3-0.8-0.6-1.2-0.9   c-1.3-1-2.3-1.7-2.6-1.8l0,0l-0.1,0c-0.3-0.2-0.6-0.3-0.9-0.3c-0.4,0-0.8,0.2-1.1,0.4l0,0c-0.3,0.2-0.4,0.5-0.3,0.8   c0,0.3,0.2,0.5,0.5,0.7c0.1,0,2.7,1.6,5.9,3.5c0.8,0.5,1.7,1,2.6,1.5c2.6,1.5,5.3,3.1,7.2,4.2l0,0c0.3,0.2,0.6,0.5,0.8,0.8   c0.2,0.3,0.3,0.6,0.5,0.9c0.2,0.5,0.3,1,0.3,1l0.4,2.6c0.1,0.5,0.4,1,0.9,1.3l7.4,4.9c0.2,0.1,0.4,0.2,0.6,0.2c0,0,0,0,0,0   c0.3,0,0.5-0.1,0.6-0.2l0,0l5.4-5.1C69.7,57.9,69.8,57.7,69.8,57.6z M63.9,61.5c-0.2,0.1-0.4,0.2-0.6,0.2c-0.2,0-0.3,0-0.4-0.1   l-5-3.3c-0.2-0.1-0.3-0.3-0.3-0.4c0-0.2,0.1-0.3,0.2-0.5c0.2-0.1,0.4-0.2,0.6-0.2c0.2,0,0.3,0,0.4,0.1l5,3.3   c0.2,0.1,0.3,0.3,0.3,0.4C64.1,61.2,64,61.4,63.9,61.5z M65.6,59.9c-0.2,0.1-0.4,0.2-0.6,0.2c-0.2,0-0.3,0-0.4-0.1l0,0l-4.9-3.3   c-0.2-0.1-0.3-0.3-0.3-0.4c0-0.2,0.1-0.3,0.2-0.5c0.2-0.1,0.4-0.2,0.6-0.2c0.2,0,0.3,0,0.4,0.1l0,0l4.9,3.3   c0.2,0.1,0.3,0.3,0.3,0.4C65.8,59.6,65.7,59.7,65.6,59.9z M67.4,58.2c-0.2,0.1-0.4,0.2-0.6,0.2c-0.2,0-0.3,0-0.4-0.1l0,0l-5-3.3   c-0.2-0.1-0.3-0.3-0.3-0.4c0-0.2,0.1-0.3,0.2-0.5l0,0l0,0c0.1-0.1,0.3-0.2,0.5-0.2c0.2,0,0.3,0,0.5,0.1l5,3.3   c0.2,0.1,0.3,0.3,0.3,0.4C67.6,57.9,67.5,58.1,67.4,58.2z"/></g></svg>
