<svg xmlns="http://www.w3.org/2000/svg" xmlns:xlink="http://www.w3.org/1999/xlink" viewBox="0 0 100 100" version="1.1" xml:space="preserve" style="" x="0px" y="0px" fill-rule="evenodd" clip-rule="evenodd" stroke-linejoin="round" stroke-miterlimit="1.41421"><g transform="matrix(0.707107,-0.707107,0.707107,0.707107,-20.7107,70.0002)"><g transform="matrix(0.707107,0.707107,-0.707107,0.707107,68.634,-35.0811)"><circle cx="30.345" cy="67.036" r="0.952" style="" fill="black"/></g><g transform="matrix(0.707107,0.707107,-0.707107,0.707107,68.634,-35.0811)"><circle cx="32.964" cy="69.655" r="0.952" style="" fill="black"/></g><g transform="matrix(0.707107,0.707107,-0.707107,0.707107,68.634,-35.0811)"><circle cx="27.682" cy="69.699" r="0.952" style="" fill="black"/></g><g transform="matrix(0.707107,0.707107,-0.707107,0.707107,68.634,-35.0811)"><circle cx="30.301" cy="72.318" r="0.952" style="" fill="black"/></g><g transform="matrix(0.707107,0.707107,-0.707107,0.707107,58.634,-35.0811)"><circle cx="71.573" cy="25.808" r="0.952" style="" fill="black"/></g><g transform="matrix(0.707107,0.707107,-0.707107,0.707107,58.634,-35.0811)"><circle cx="74.192" cy="28.426" r="0.952" style="" fill="black"/></g><g transform="matrix(0.707107,0.707107,-0.707107,0.707107,58.634,-35.0811)"><circle cx="68.91" cy="28.471" r="0.952" style="" fill="black"/></g><g transform="matrix(0.707107,0.707107,-0.707107,0.707107,58.634,-35.0811)"><circle cx="71.529" cy="31.089" r="0.952" style="" fill="black"/></g><g transform="matrix(0.707107,0.707107,-0.707107,0.707107,68.634,-35.0811)"><path d="M68.406,47.62L73.375,52.589C73.961,53.175 74.91,53.175 75.496,52.589L81.55,46.535C82.136,45.949 82.136,44.999 81.55,44.414L76.514,39.378C81.395,32.611 82.615,25.791 79.353,21.816C79.008,21.336 78.585,20.931 78.261,20.706C74.22,17.392 67.377,18.611 60.62,23.484L55.587,18.451C55.001,17.865 54.052,17.865 53.466,18.451L47.412,24.505C46.826,25.091 46.826,26.04 47.412,26.626L52.38,31.594L27.386,61.956L26.536,61.106L27.171,60.471C27.757,59.885 27.757,58.936 27.171,58.35L21.43,52.609C20.844,52.023 19.894,52.023 19.309,52.609L13.255,58.663C12.669,59.249 12.669,60.198 13.255,60.784L18.996,66.525C19.582,67.111 20.532,67.111 21.117,66.525L21.752,65.89L22.972,67.11L12.196,79.688C10.507,81.425 10.521,84.213 12.24,85.932L14.068,87.76C15.786,89.478 18.574,89.493 20.311,87.804L32.89,77.029L34.109,78.248L33.474,78.883C32.888,79.469 32.888,80.419 33.474,81.004L39.216,86.746C39.802,87.332 40.752,87.332 41.337,86.746L47.391,80.692C47.977,80.106 47.977,79.156 47.391,78.571L41.649,72.829C41.063,72.243 40.113,72.243 39.528,72.829L38.893,73.464L38.043,72.614L68.406,47.62ZM20.056,63.343L16.436,59.723L20.369,55.79L23.989,59.41L23.354,60.045L20.691,62.708L20.056,63.343ZM23.873,63.768L24.414,63.227L25.313,64.126L24.814,64.71L23.873,63.768ZM40.589,76.011L44.209,79.631L40.276,83.564L36.656,79.944L37.291,79.309L39.954,76.646L40.589,76.011ZM36.231,76.127L35.28,75.176L35.864,74.677L36.772,75.585L36.231,76.127ZM74.747,41.854L78.367,45.474L74.435,49.406L70.815,45.786L74.747,41.854ZM54.214,29.185L50.594,25.565L54.526,21.633L58.146,25.253L54.214,29.185ZM18.235,85.637C17.671,86.201 16.753,86.202 16.189,85.638L14.361,83.81C13.797,83.246 13.797,82.328 14.361,81.764C14.388,81.737 14.415,81.708 14.439,81.679L58.013,29.626C58.116,29.525 58.228,29.419 58.374,29.286C65.057,22.79 72.788,20.098 76.434,23.084C76.619,23.217 76.723,23.303 76.973,23.641C79.9,27.211 77.208,34.942 70.676,41.662C70.573,41.776 70.471,41.883 70.371,41.984L18.32,85.559C18.291,85.584 18.262,85.611 18.235,85.637Z" style="" fill="black" fill-rule="nonzero"/></g></g></svg>
