<svg xmlns="http://www.w3.org/2000/svg" xmlns:xlink="http://www.w3.org/1999/xlink" version="1.1" x="0px" y="0px" viewBox="0 0 1000 1000" enable-background="new 0 0 1000 1000" xml:space="preserve"><path d="M969.399,828.834L766.311,644.169h140.574v-14H750.914l-4.577-4.162v-93.345h160.548v-14H746.337V507h160.548v-14H746.337  v-37.54H668.51v-22.932h238.375v-14H668.51v-36.932h-5.383l-17.782-8.682v-51.315h-0.001V191.856h-36.479v48.586  c-9.119-11.126-20.647-20.067-34.365-26.549v-56.285h-14v13.999h-54.808v-13.999h-14v13.999h-62.101v-13.999h-14v57.051  c-12.681,6.243-23.437,14.63-32.086,24.939v-47.742h-36.478v129.743v7v42.416l-23.052,10.581h-5.47v36.932H82.526v14h235.979v22.932  h-71.929V493H82.526v14h164.05v11.662H82.526v14h164.05v96.981l-1.301,1.186v-0.66H82.526v14h148.11L27.981,828.834H13.274v13.402  l-0.656,0.598h0.656h332.383h309.782h329.356h1.93v-14H969.399z M898.483,828.834h-22.454l-6.568-6.152l10.326-17.717l21.048,19.439  L898.483,828.834z M260.577,563.5h35.754v19.559h-35.754V563.5z M381.168,507l-70.837,64.549V507H381.168z M732.337,583.059h-33.233  l-2.521-2.292V563.5h35.754V583.059z M603.771,757.801l-19.098-20.31l12.412-15.151l18.551,19.56L603.771,757.801z M552.661,754.479  l-13.706-15.443l13.094-15.804l14.007,14.896L552.661,754.479z M501.993,761.706l-17.745-21.274l18.66-20.923l17.607,19.84  L501.993,761.706z M449.945,757.862l-11.041-13.676l15.675-17.469l11.184,13.408L449.945,757.862z M296.532,820.42l-13.015-18.737  l19.443-20.072l12.873,18.188L296.532,820.42z M245.864,820.435l-13.101-19.577l19.592-19.497l13.095,18.853L245.864,820.435z   M194.817,818.868l-11.958-17.985l20.073-19.432l11.787,17.612L194.817,818.868z M142.682,820.293l-10.332-17.669l21.471-20.128  l10.927,16.435L142.682,820.293z M164.178,772.786l20.251-18.985l10.59,15.825l-20.042,19.402L164.178,772.786z M615.722,526.163  l-7.778,8.669l-13.375-12.354l7.862-8.4L615.722,526.163z M686.77,590.766l-7.867,9.604l-14.199-13.114l7.822-9.441L686.77,590.766z   M767.3,726.99l-18.973-17.771l10.846-15.653l18.675,17.247L767.3,726.99z M788.279,720.448l19.052,17.596l-10.537,16.572  l-19.117-17.906L788.279,720.448z M272.4,714.199l18.766-18.168l11.406,15.605l-18.767,18.676L272.4,714.199z M273.741,740.328  l-19.419,19.324l-11.609-16.714l19.509-18.887L273.741,740.328z M665.129,675.568l-16.398-16.273l11.209-13.685l16.212,15.185  L665.129,675.568z M686.434,670.426l15.902,14.896l-11.853,15.407l-15.318-15.2L686.434,670.426z M638.748,649.389l-14.007-13.898  l10.659-12.865l14.3,13.394L638.748,649.389z M614.764,625.589l-14.905-14.791l10.43-11.695l14.875,13.934L614.764,625.589z   M414.554,619.95l12.193,13.739l-16.942,17.491l-12.08-14.483L414.554,619.95z M388.723,625.904l-11.222-13.453l16.35-15.828  l11.395,12.839L388.723,625.904z M424.494,610.059l10.917-10.864l12.19,12.964l-11.086,11.446L424.494,610.059z M525.386,575.908  l-11.526-12.031l9.234-9.534l11.652,11.564L525.386,575.908z M544.688,575.772l14.029,13.922l-9.733,10.848l-13.899-14.509  L544.688,575.772z M515.805,586.146l-14.2,15.171l-11.878-12.525l14.386-14.852L515.805,586.146z M504.167,553.76l-11.273-11.769  l8.864-8.821l11.397,11.311L504.167,553.76z M494.42,563.823l-14.336,14.801l-11.654-12.288l14.538-14.468L494.42,563.823z   M470.334,588.689l-12.982,13.402l-12.014-12.776l13.165-13.102L470.334,588.689z M457.203,622.369l12.378,13.162l-11.54,12.329  l-12.207-13.755L457.203,622.369z M466.954,612.302l13.023-13.445l12.043,12.699l-12.854,13.734L466.954,612.302z M501.671,621.731  l14.542,15.333l-12.683,14.135l-14.754-15.689L501.671,621.731z M511.256,611.492l14.247-15.223l14.104,14.723l-14.014,15.618  L511.256,611.492z M549.319,621.131l11.686,12.198l-14.073,15.781l-11.673-12.309L549.319,621.131z M558.696,610.681l9.971-11.112  l11.908,11.816l-10.223,11.464L558.696,610.681z M590.527,621.261l15.269,15.152l-10.411,12.566l-15.317-15.99L590.527,621.261z   M619.608,588.651l11.73-13.153l14.12,13.041l-11.348,13.696L619.608,588.651z M609.388,579.078l-12.136-11.367l11.626-12.958  l12.175,11.245L609.388,579.078z M600.067,589.529l-10.16,11.393l-11.879-11.787l9.872-11.002L600.067,589.529z M568.079,579.261  l-13.82-13.715l9.438-10.084l13.983,13.098L568.079,579.261z M544.317,555.682l-11.482-11.396l9.005-9.297l11.64,10.902  L544.317,555.682z M522.896,534.424l-11.215-11.129l8.568-8.527l11.37,10.649L522.896,534.424z M501.744,513.433l-10.845-10.761  l8.083-7.826l11.043,10.344L501.744,513.433z M491.82,523.309l-8.613,8.571l-10.816-11.29l8.448-8.179L491.82,523.309z   M473.282,541.757l-14.488,14.418l-11.086-11.689l14.625-14.158L473.282,541.757z M448.867,566.053l-13.123,13.06L424.4,567.049  l13.248-12.825L448.867,566.053z M425.817,588.991l-10.631,10.579l-11.266-12.694l10.421-10.089L425.817,588.991z M394.618,576.395  l-9.517-10.724l9.984-9.36l9.664,10.276L394.618,576.395z M384.55,586.142l-16.041,15.529l-9.57-11.474l15.944-14.947  L384.55,586.142z M358.424,611.435l-14.982,14.504l-9.747-12.073l15.015-14.077L358.424,611.435z M367.416,622.216l11.346,13.603  l-15.163,15.089l-11.327-14.031L367.416,622.216z M353.621,660.836l-14.903,14.831l-11.394-14.64l14.848-14.374L353.621,660.836z   M328.72,685.616l-16.108,16.03l-11.29-15.446l15.884-15.378L328.72,685.616z M310.929,723.071l12.575,17.206l-18.863,19.475  l-12.634-17.851L310.929,723.071z M320.968,713.081l16.414-16.335l12.603,16.193l-16.597,17.135L320.968,713.081z M347.38,686.797  l15.083-15.009l12.447,15.418l-15.088,15.577L347.38,686.797z M372.44,661.859l15.323-15.249l12.247,14.683l-15.286,15.781  L372.44,661.859z M409.028,672.105l12.403,14.87l-15.416,16.471l-12.431-15.397L409.028,672.105z M418.823,661.992l17.243-17.802  l12.367,13.936l-17.362,18.55L418.823,661.992z M457.766,668.642l14.974,16.873l-17.774,19.81l-14.859-17.815L457.766,668.642z   M467.374,658.376l11.817-12.625l14.957,15.906l-11.997,13.37L467.374,658.376z M503.771,671.893l11.724,12.468l-12.562,14.085  l-11.431-12.879L503.771,671.893z M513.155,661.436l12.723-14.18l11.703,12.34l-12.731,14.275L513.155,661.436z M547.248,669.789  l16.49,17.388l-12.354,14.913l-16.906-17.979L547.248,669.789z M556.6,659.304l14.121-15.833l15.673,16.361l-13.658,16.486  L556.6,659.304z M596.144,670.009l13.86,14.469l-13.686,16.707l-13.879-14.635L596.144,670.009z M605.135,659.156l10.639-12.842  l14.063,13.954l-10.896,13.3L605.135,659.156z M639.818,670.174l16.854,16.727l-10.929,14.647l-17.049-17.796L639.818,670.174z   M666.71,696.86l15.169,15.054l-11.671,15.172l-14.645-15.287L666.71,696.86z M691.895,721.853l18.158,18.019l-11.583,16.716  l-18.466-19.276L691.895,721.853z M700.499,710.668l12.102-15.732l17.337,16.239l-11.787,17.01L700.499,710.668z M740.267,720.85  l19.27,18.049l-12.017,18.431L728.244,738.2L740.267,720.85z M737.997,699.543l-16.82-15.756l11.385-14.8l16.226,14.985  L737.997,699.543z M710.911,674.173l-16.054-15.037l11.031-14.784l16.348,15.099L710.911,674.173z M684.576,649.504l-15.745-14.747  l11.486-14.022l15.229,14.066L684.576,649.504z M658.591,625.165l-14.242-13.341l11.41-13.772l14.256,13.167L658.591,625.165z   M654.403,577.743l-13.744-12.695l7.982-8.951l13.515,12.288L654.403,577.743z M630.372,555.548l-12.144-11.216l7.852-8.75  l12.202,11.096L630.372,555.548z M598.593,545.254l-11.561,12.884l-13.769-12.896l11.737-12.541L598.593,545.254z M563.046,535.671  l-11.465-10.739l11.81-12.191l11.326,10.462L563.046,535.671z M541.362,515.359l-11.183-10.474l11.893-11.834l11.03,10.188  L541.362,515.359z M519.956,495.31l-10.902-10.212l11.916-11.536l10.809,9.983L519.956,495.31z M498.823,475.515l-8.781-8.225  l11.979-11.23l8.648,7.987L498.823,475.515z M488.752,485.264l-7.792,7.544l-8.811-8.744l7.658-7.18L488.752,485.264z   M470.899,502.548l-8.193,7.932l-8.864-9.253l8.086-7.581L470.899,502.548z M452.647,520.217l-14.575,14.109l-9.195-9.695  l14.75-13.828L452.647,520.217z M428.014,544.065l-13.205,12.783l-9.509-10.113l13.365-12.529L428.014,544.065z M395.708,536.536  l-12.076-12.842l13.444-12.25l11.953,12.604L395.708,536.536z M373.284,533.125l12.211,12.986l-9.69,9.084l-11.956-13.473  L373.284,533.125z M353.5,551.153l12.088,13.621l-15.631,14.653l-11.87-14.23L353.5,551.153z M327.729,574.635l11.998,14.384  l-14.851,13.923l-11.957-14.811L327.729,574.635z M314.634,612.543l-14.48,13.575l-12.001-15.42l14.399-13.121L314.634,612.543z   M323.453,623.467l9.889,12.249l-14.667,14.199l-9.886-12.702L323.453,623.467z M308.558,659.71l-15.576,15.079l-9.869-13.504  l15.42-14.456L308.558,659.71z M282.827,684.62l-18.61,18.016l-10.056-14.208l18.662-17.495L282.827,684.62z M254.039,712.489  l-19.418,18.799l-10.324-14.863l19.554-18.331L254.039,712.489z M224.428,741.154l-19.187,18.575l-10.461-15.633l19.194-17.993  L224.428,741.154z M213.154,771.555l19.367-18.749l11.723,16.876l-19.414,19.32L213.154,771.555z M262.434,771.331l19.509-19.415  l12.788,18.067l-19.354,19.981L262.434,771.331z M312.87,771.378l19.017-19.632l12.681,17.351l-18.969,20.267L312.87,771.378z   M341.77,741.542l16.898-17.446l12.721,16.346l-17.084,18.252L341.77,741.542z M368.505,713.94l15.265-15.76l12.584,15.587  l-15.278,16.324L368.505,713.94z M405.234,724.768l15.291,18.94l-15.45,17.219l-15.293-19.649L405.234,724.768z M414.895,714.446  l15.572-16.638l15.051,18.045l-15.521,17.298L414.895,714.446z M464.027,716.188l18.066-20.134l11.459,12.912l-18.369,20.597  L464.027,716.188z M512.29,708.988l12.833-14.39l17.26,18.355l-12.83,15.486L512.29,708.988z M561.049,712.368l12.394-14.959  l13.934,14.691l-12.374,15.105L561.049,712.368z M606.028,711.423l13.73-16.762l17.496,18.264l-13.122,17.588L606.028,711.423z   M647.075,723.176l14.499,15.135l-13.457,17.492l-14.208-14.981L647.075,723.176z M671.369,748.535l18.963,19.795l-12.807,18.481  l-19.656-20.727L671.369,748.535z M700.217,778.648l19.875,20.748l-12.479,19.14l-20.245-21.347L700.217,778.648z M708.354,766.904  l11.792-17.017l19.566,19.416l-11.769,18.05L708.354,766.904z M749.86,779.375l19.125,18.979l-12.17,19.139l-18.927-19.757  L749.86,779.375z M757.668,767.399l12.244-18.781l19.238,18.02l-12.477,19.622L757.668,767.399z M799.548,776.377l20.165,18.889  l-13.143,20.662l-19.724-19.573L799.548,776.377z M807.191,764.355l10.592-16.658l20.274,18.726l-10.699,16.822L807.191,764.355z   M848.509,776.076l20.744,19.159l-10.274,17.628l-21.223-19.88L848.509,776.076z M856.145,764.07l7.775-12.225l20.016,18.199  l-7.462,12.802L856.145,764.07z M845.693,754.418l-20.276-18.727l7.597-11.948l20.395,18.544L845.693,754.418z M814.965,726.037  l-18.931-17.484l7.546-11.573l18.921,17.205L814.965,726.037z M785.603,698.918l-18.377-16.973l7.661-11.057l18.2,16.55  L785.603,698.918z M756.839,672.352l-15.706-14.506l7.988-10.385l15.315,13.927L756.839,672.352z M738.729,638.012l-7.922,10.297  l-16.5-15.239l7.675-10.286L738.729,638.012z M703.965,623.518l-14.76-13.633l7.937-9.688l14.433,13.124L703.965,623.518z   M732.337,549.5h-35.754V507h35.754V549.5z M682.583,568.036L615.457,507h67.126V568.036z M584.284,512.98l-11.151-10.299  l7.851-8.105l11.089,10.083L584.284,512.98z M562.846,493.18l-10.841-10.013l7.845-7.808l10.771,9.793L562.846,493.18z   M541.711,473.66l-10.667-9.852l7.799-7.55l10.636,9.671L541.711,473.66z M520.743,454.294l-8.482-7.834l7.782-7.296l8.42,7.656  L520.743,454.294z M501.948,436.936l-11.474-10.598l7.723-7.038l11.453,10.415L501.948,436.936z M480.087,435.802l11.622,10.733  l-11.907,11.163l-11.708-10.967L480.087,435.802z M457.713,456.19l11.854,11.103l-7.363,6.903l-11.608-11.52L457.713,456.19z   M451.984,483.777l-7.828,7.339l-11.545-12.052l7.623-6.947L451.984,483.777z M422.26,488.497l11.683,12.195l-14.699,13.781  l-11.816-12.46L422.26,488.497z M277.774,620.156l12.124,15.578l-15.108,14.163l-11.854-16.22L277.774,620.156z M264.5,659.545  l-18.503,17.347l-11.952-16.887l18.482-16.843L264.5,659.545z M235.686,686.558l-19.462,18.245l-12.148-17.49l19.542-17.807  L235.686,686.558z M205.901,714.481l-19.012,17.823l-12.193-18.221l18.941-17.26L205.901,714.481z M176.538,742.009l-20.22,18.956  l-12.477-18.766l20.391-18.58L176.538,742.009z M145.961,770.675l-20.858,19.555l-11.809-20.194l20.078-18.296L145.961,770.675z   M114.627,800.05l-21.287,19.957l-10.942-21.819l20.315-18.512L114.627,800.05z M121.875,812.445l9.583,16.389h-27.064  L121.875,812.445z M172.63,810.785l12,18.049h-30.644L172.63,810.785z M222.652,810.92l11.988,17.914h-29.99L222.652,810.92z   M273.59,811.932l11.741,16.902h-28.113L273.59,811.932z M324.089,811.464l12.293,17.37h-28.551L324.089,811.464z M347.706,820.598  l-13.85-19.568l19.12-20.428l14.396,19.696L347.706,820.598z M377.256,790.095l-14.542-19.897l17.381-18.57l15.337,19.706  L377.256,790.095z M429.433,754.742l8.146,10.092h-17.201L429.433,754.742z M474.828,750.994l11.543,13.84h-23.885L474.828,750.994z   M529.918,749.944l13.214,14.89h-25.55L529.918,749.944z M575.727,748.413l15.441,16.421h-28.893L575.727,748.413z M625.413,752.208  l14.063,14.829l-14.151,18.396l-13.109-15.537L625.413,752.208z M649.228,777.319l20.152,21.248l-14.868,21.457l-19.948-23.643  L649.228,777.319z M679.222,808.945l18.862,19.889H665.44L679.222,808.945z M730.037,809.777l18.256,19.057h-30.68L730.037,809.777z   M766.788,827.902l12.369-19.455l19.724,19.572l-0.519,0.814h-30.682L766.788,827.902z M816.742,826.021l13.368-21.018  l21.637,20.267l-2.077,3.563h-30.094L816.742,826.021z M887.008,792.576l7.52-12.899l20.268,18.43l-7.172,13.51L887.008,792.576z   M714.5,597.059h17.837v16.219L714.5,597.059z M732.337,493H600.061l-25.889-23.54h158.165V493z M568.92,335.599h62.425v30.479  L568.92,335.599z M622.865,263.287v-57.431h8.479v86.105c-0.466-2.755-1.03-5.589-1.719-8.481c-1.7-7.143-3.965-13.881-6.768-20.193  H622.865z M560.5,185.607v26.498h-54.808v-26.498H560.5z M491.692,185.607v26.498h-62.101v-26.498H491.692z M424.093,226.105h68.875  h5.724h68.875c12.563,5.761,22.901,13.683,30.965,23.694h-40.97v14h50.034c2.79,5.384,5.123,11.179,6.947,17.418H539.91v14h77.777  c1.765,11.006,1.742,20.558,1.445,26.381h-78.887l-41.461-20.244l-44.102,20.244h-82.155c-0.296-5.824-0.32-15.375,1.446-26.381  h75.707v-14h-72.563c1.825-6.239,4.157-12.034,6.947-17.418h47.964v-14h-38.899C401.192,239.788,411.53,231.866,424.093,226.105z   M369.505,205.856v55.898c-3.126,6.751-5.631,14-7.47,21.726c-0.37,1.554-0.705,3.091-1.008,4.609v-82.233H369.505z   M361.027,335.599h63.155l-63.155,28.989V335.599z M498.6,316.844l37.559,18.338v0.416h0.853l94.207,45.997H357.535L498.6,316.844z   M332.505,395.596H654.51v59.864h-95.734l-60.588-55.091l-60.458,55.091H332.505V395.596z M260.577,469.46h161.789L396.532,493  H260.577V469.46z M296.331,507v42.5h-35.754V507H296.331z M260.577,597.059h21.76l-21.76,19.828V597.059z M71.649,807.982  l10.456,20.852H48.767L71.649,807.982z M359.22,828.834l44.896-46.344l0.195,0.251l3.506-3.907h193.623l42.188,50H359.22z   M926.266,828.834l-8.007-7.395l7.227-13.613l23.104,21.008H926.266z"/></svg>