<?xml version="1.0" encoding="UTF-8" standalone="no"?>
<svg width="100px" height="100px" viewBox="0 0 100 100" version="1.1" xmlns="http://www.w3.org/2000/svg" xmlns:xlink="http://www.w3.org/1999/xlink" xmlns:sketch="http://www.bohemiancoding.com/sketch/ns">
    <!-- Generator: Sketch 3.5.2 (25235) - http://www.bohemiancoding.com/sketch -->
    <title>movie</title>
    <desc>Created with Sketch.</desc>
    <defs></defs>
    <g id="Page-1" stroke="none" stroke-width="1" fill="none" fill-rule="evenodd" sketch:type="MSPage">
        <g id="Group" sketch:type="MSLayerGroup" fill="#000000">
            <path d="M33,55.685 L45,60.534 L45,57.429 L38.065,54.551 L45,51.583 L45,48.501 L33,53.35 L33,55.685 Z" id="Shape" sketch:type="MSShapeGroup"></path>
            <path d="M45.892,61.713 L48.452,62.55 L55.455,44.988 L52.895,44.104 L45.892,61.713 Z" id="Shape" sketch:type="MSShapeGroup"></path>
            <path d="M57,51.583 L63.934,54.551 L57,57.429 L57,60.534 L69,55.685 L69,53.35 L57,48.501 L57,51.583 Z" id="Shape" sketch:type="MSShapeGroup"></path>
            <path d="M19.766,19 L17.273,19 L16.616,23 L14.848,23 L15.504,19 L12.988,19 L12.331,23 L10,23 L10,25 L12.038,25 L11.698,28 L10,28 L10,30 L11.38,30 L10.724,34 L13.217,34 L13.874,30 L15.664,30 L15.007,34 L17.5,34 L18.18,30 L20,30 L20,28 L18.475,28 L18.792,25 L21,25 L21,23 L19.131,23 L19.766,19 L19.766,19 Z M15.981,28 L14.213,28 L14.508,25 L16.299,25 L15.981,28 L15.981,28 Z" id="Shape" sketch:type="MSShapeGroup"></path>
            <path d="M96.223,0 L3.777,0 C1.691,0 0,1.691 0,3.777 L0,68.222 C0,70.309 1.691,72 3.777,72 L96.222,72 C98.308,72 99.999,70.309 99.999,68.223 L99.999,3.777 C100,1.691 98.309,0 96.223,0 L96.223,0 Z M23.048,3.544 C24.416,3.544 25.527,4.654 25.527,6.023 C25.527,7.392 24.416,8.502 23.048,8.502 C21.68,8.502 20.569,7.393 20.569,6.023 C20.569,4.654 21.68,3.544 23.048,3.544 L23.048,3.544 Z M15.494,3.544 C16.863,3.544 17.973,4.654 17.973,6.023 C17.973,7.392 16.863,8.502 15.494,8.502 C14.126,8.502 13.015,7.393 13.015,6.023 C13.015,4.654 14.126,3.544 15.494,3.544 L15.494,3.544 Z M7.94,3.544 C9.308,3.544 10.419,4.654 10.419,6.023 C10.419,7.392 9.309,8.502 7.94,8.502 C6.571,8.502 5.461,7.393 5.461,6.023 C5.461,4.654 6.572,3.544 7.94,3.544 L7.94,3.544 Z M92.8828,68 L7.1172,68 C4.84344444,68 3,66.0273529 3,63.5953529 L3,15.4046471 C3,12.9726471 4.84344444,11 7.1172,11 L92.8817556,11 C95.1565556,11 97,12.9726471 97,15.4046471 L97,63.5953529 C97,66.0273529 95.1565556,68 92.8828,68 Z" id="Shape" sketch:type="MSShapeGroup"></path>
            <path d="M75.367,18.812 C74.879,19.341 75,20.073 75,20.972 L75,24.363 C75,24.641 74.596,24.872 74.516,25.057 C74.436,25.243 74.043,25.384 73.917,25.484 C73.792,25.583 73.642,25.652 73.483,25.692 C73.324,25.731 73,25.75 73,25.75 L73,27.932 C73,27.932 73.342,27.952 73.499,27.992 C73.658,28.032 73.871,28.104 73.998,28.21 C74.123,28.316 74.461,28.465 74.54,28.657 C74.618,28.848 75,29.096 75,29.4 L75,32.711 C75,33.61 74.879,34.001 75.367,34.529 C75.857,35.058 76.151,35 76.984,35 L80,35 L80,33 L78.623,33 C78.24,33 78.136,33.156 78.024,32.906 C77.911,32.654 78,32.664 78,32.375 L78,29.142 C78,28.705 77.76,28.346 77.629,28.061 C77.498,27.776 77.279,27.549 77.088,27.376 C76.897,27.205 76.76,27.079 76.548,27 C76.336,26.921 76,26.875 76,26.861 L76,26.822 C76,26.808 76.256,26.756 76.465,26.663 C76.679,26.57 76.879,26.438 77.07,26.266 C77.262,26.095 77.571,25.873 77.702,25.601 C77.834,25.331 78,25.004 78,24.621 L78,21.309 C78,21.019 77.911,20.688 78.024,20.437 C78.136,20.186 78.24,20 78.623,20 L80,20 L80,18 L76.984,18 C76.151,18 75.857,18.283 75.367,18.812 L75.367,18.812 Z" id="Shape" sketch:type="MSShapeGroup"></path>
            <path d="M89.083,25.484 C88.957,25.384 88.564,25.243 88.484,25.057 C88.404,24.872 88,24.641 88,24.363 L88,20.972 C88,20.073 88.121,19.341 87.633,18.811 C87.143,18.283 86.849,18 86.016,18 L83,18 L83,20 L84.377,20 C84.76,20 84.864,20.186 84.976,20.437 C85.089,20.688 85,21.019 85,21.309 L85,24.621 C85,25.005 85.166,25.331 85.298,25.602 C85.429,25.873 85.737,26.095 85.93,26.267 C86.121,26.439 86.322,26.571 86.535,26.664 C86.744,26.756 87,26.809 87,26.822 L87,26.861 C87,26.875 86.664,26.921 86.452,27 C86.24,27.08 86.103,27.205 85.912,27.377 C85.721,27.549 85.502,27.777 85.371,28.062 C85.24,28.347 85,28.705 85,29.143 L85,32.375 C85,32.664 85.089,32.654 84.976,32.906 C84.864,33.156 84.76,33 84.377,33 L83,33 L83,35 L86.016,35 C86.849,35 87.143,35.058 87.633,34.529 C88.121,34.001 88,33.61 88,32.711 L88,29.4 C88,29.095 88.382,28.847 88.46,28.656 C88.539,28.465 88.877,28.316 89.002,28.21 C89.129,28.104 89.342,28.031 89.501,27.992 C89.658,27.952 90,27.932 90,27.932 L90,25.75 C90,25.75 89.676,25.731 89.517,25.691 C89.358,25.652 89.208,25.583 89.083,25.484 L89.083,25.484 Z" id="Shape" sketch:type="MSShapeGroup"></path>
        </g>
    </g>
</svg>
