<?xml version="1.0" encoding="UTF-8" standalone="no"?>
<svg width="71px" height="43px" viewBox="0 0 71 43" version="1.1" xmlns="http://www.w3.org/2000/svg" xmlns:xlink="http://www.w3.org/1999/xlink">
    <!-- Generator: Sketch 3.8.2 (29753) - http://www.bohemiancoding.com/sketch -->
    <title>Slice 1</title>
    <desc>Created with Sketch.</desc>
    <defs></defs>
    <g id="Page-1" stroke="none" stroke-width="1" fill="none" fill-rule="evenodd">
        <path d="M31.41,0.55 C38,-0.3 44.97,0.33 51.71,0.27 C43.45,14.06 35.63,28.11 27.72,42.1 C21.23,42.13 14.75,42.09 8.26,42.12 C1.91,33.88 -1.19,22.77 1.28,12.52 C1.98,9.05 3.38,5.78 4.9,2.6 C8.9,9.83 13.2,16.9 17.06,24.2 C17.3,24.16 17.78,24.08 18.02,24.03 C22.37,16.15 26.81,8.29 31.41,0.55 L31.41,0.55 Z" id="Shape" fill="#264670"></path>
        <path d="M58.7,15.52 C61.8,11.73 62.86,6.33 66.6,3.1 C72.78,15.55 71.56,31.24 62.76,42.14 C56.33,42.09 49.91,42.09 43.48,42.14 C45.71,38.76 47.64,35.19 49.59,31.64 C46.91,31.69 44.23,31.7 41.56,31.55 C45.01,26.41 47.72,20.83 50.95,15.55 C53.53,15.57 56.12,15.73 58.7,15.52 L58.7,15.52 Z" id="Shape" fill="#264670"></path>
    </g>
</svg>