<svg width="31" height="23" viewBox="220 21 31 23" xmlns="http://www.w3.org/2000/svg"><path d="M237.102 30.796a.494.494 0 0 1 0-.699l3.622-3.624a.495.495 0 0 1 .7 0l7.318 7.318a1.42 1.42 0 0 1-.011 1.981l-7.512 7.513a.495.495 0 0 1-.35.146h-7.251a.494.494 0 0 1-.333-.859l7.446-7.45a.492.492 0 0 0 0-.696l-3.63-3.63zm-4.992 3.634a.494.494 0 0 1 0 .699l-3.622 3.624a.495.495 0 0 1-.7 0l-7.319-7.318a1.42 1.42 0 0 1 .012-1.98l7.512-7.515a.497.497 0 0 1 .35-.145h7.25a.494.494 0 0 1 .333.859l-7.446 7.45a.498.498 0 0 0-.145.348c0 .127.05.254.145.349l3.63 3.63" fill="#FFFFFF" fill-rule="evenodd"/></svg>