<?xml version="1.0" encoding="UTF-8" standalone="no"?>
<svg width="99px" height="97px" viewBox="0 0 99 97" version="1.1" xmlns="http://www.w3.org/2000/svg" xmlns:xlink="http://www.w3.org/1999/xlink" xmlns:sketch="http://www.bohemiancoding.com/sketch/ns">
    <!-- Generator: Sketch 3.5.2 (25235) - http://www.bohemiancoding.com/sketch -->
    <title>Untitled</title>
    <desc>Created with Sketch.</desc>
    <defs>
        <filter x="-50%" y="-50%" width="200%" height="200%" filterUnits="objectBoundingBox" id="filter-1">
            <feOffset dx="0" dy="2" in="SourceAlpha" result="shadowOffsetOuter1"></feOffset>
            <feGaussianBlur stdDeviation="2" in="shadowOffsetOuter1" result="shadowBlurOuter1"></feGaussianBlur>
            <feColorMatrix values="0 0 0 0 0   0 0 0 0 0   0 0 0 0 0  0 0 0 0.35 0" in="shadowBlurOuter1" type="matrix" result="shadowMatrixOuter1"></feColorMatrix>
            <feMerge>
                <feMergeNode in="shadowMatrixOuter1"></feMergeNode>
                <feMergeNode in="SourceGraphic"></feMergeNode>
            </feMerge>
        </filter>
    </defs>
    <g id="Page-1" stroke="none" stroke-width="1" fill="none" fill-rule="evenodd" sketch:type="MSPage">
        <g id="index" sketch:type="MSLayerGroup" transform="translate(4.000000, 2.000000)">
            <rect id="Rectangle-1" fill="#FF6666" sketch:type="MSShapeGroup" x="0" y="0" width="91" height="89"></rect>
            <path d="M28.7,80.7 C30.3,78 32,75.5 33.3,58 C34.6,40.6 34.2,34.8 33.3,29 C32.4,23.2 29.3,16.5 38.9,12 C48.5,7.5 53.7,8 57.8,11.5 C61.9,15 63.6,17.1 64.8,18 C65.7,18.6 67.3,19.9 69.1,20.2 C70.9,20.5 72.8,21.4 73,22.4 C73.2,23.4 72.9,26.3 71.4,27.4 C69.8,28.6 66.3,31.6 60.3,31.9 C54.3,32.2 53.4,32.3 52.7,35 C52,37.7 52.2,40.2 52.3,42.3 C52.4,44.2 52.6,46.6 54.1,49.9 C55.6,53.2 63.7,67.9 62.3,75.6 C62,78.1 62.1,79.4 61.1,80.7" id="Shape" fill="#FFFFFF" filter="url(#filter-1)" sketch:type="MSShapeGroup"></path>
            <path d="M38.9,21.6 C38.9,21.9 38.8,22.1 38.9,22.4 C38.9,22.7 38.9,22.9 39,23.1 C39,23.3 39.1,23.6 39.2,23.8 C39.3,24 39.4,24.2 39.5,24.4 C39.7,24.8 39.9,25.1 40.2,25.4 C40.4,25.7 40.7,25.9 40.8,26.1 C41,26.3 41.2,26.4 41.3,26.5 C41.4,26.6 41.5,26.6 41.5,26.6 L41.5,26.6 C41.8,26.8 41.8,27.2 41.6,27.5 C41.4,27.7 41.1,27.8 40.8,27.7 C40.8,27.7 40.7,27.7 40.6,27.6 C40.5,27.6 40.4,27.5 40.3,27.4 C40.2,27.3 40.1,27.3 39.9,27.2 C39.6,27 39.3,26.8 39,26.4 C38.7,26.1 38.3,25.7 38,25.2 C37.7,24.7 37.4,24.1 37.2,23.5 C37.1,23.2 37,22.8 37,22.4 L37,21.3 C37,20.9 37.1,20.5 37.3,20.1 C37.4,19.7 37.6,19.4 37.8,19 C38,18.7 38.2,18.3 38.5,18 C38.6,17.9 38.8,17.7 38.9,17.6 C39,17.5 39,17.5 39.1,17.4 L39.2,17.3 L39.2,17.3 L39.2,17.3 L39.2,17.3 L39.2,17.3 C39.8,16.8 40.5,16.4 41.2,16.1 C41.9,15.8 42.7,15.7 43.5,15.8 C43.9,15.8 44.2,15.9 44.6,16 C44.8,16.1 44.9,16.1 45.1,16.2 C45.2,16.2 45.3,16.3 45.3,16.3 C45.4,16.3 45.4,16.4 45.5,16.4 C46.1,16.7 46.6,17.1 47,17.5 C47.4,17.9 47.7,18.3 48,18.7 C48.3,19.1 48.4,19.4 48.6,19.8 C48.6,19.9 48.7,20 48.7,20 C48.7,20.1 48.8,20.1 48.8,20.2 C48.8,20.3 48.8,20.3 48.9,20.4 L48.9,20.6 L48.9,20.7 C48.9,20.7 48.9,20.7 48.9,20.8 L48.9,20.9 L48.9,21 C48.9,21.3 48.7,21.6 48.4,21.7 C48.1,21.7 47.8,21.5 47.8,21.3 L47.8,21.3 C47.8,21.3 47.8,21.3 47.8,21.2 C47.8,21.2 47.8,21.2 47.8,21.1 L47.8,21.1 L47.8,21.1 C47.8,21.1 47.8,21.1 47.8,21 C47.8,21 47.8,20.9 47.7,20.9 C47.7,20.9 47.7,20.8 47.6,20.8 C47.6,20.8 47.5,20.7 47.5,20.6 C47.2,20.2 46.8,19.5 46.1,19 C45.8,18.7 45.4,18.5 44.9,18.2 C44.5,18 44,17.9 43.5,17.8 L42.8,17.8 C42.7,17.8 42.6,17.8 42.4,17.9 L42.2,18 L42,18.1 C41.5,18.3 41,18.6 40.6,19 L40.6,19 L40.6,19 L40.6,19 L40.4,19.2 L40.3,19.3 C40.2,19.4 40.1,19.5 40,19.6 C39.8,19.8 39.6,20 39.5,20.3 C39.4,20.5 39.2,20.8 39.1,21 C39,21.1 38.9,21.4 38.9,21.6 L38.9,21.6 Z M75.4,84.4 C75.2,85 74.6,85.4 74,85.4 C73.8,85.4 73.7,85.4 73.5,85.3 C56,79.1 27.3,81.4 17.4,84.3 C16.6,84.5 15.8,84.1 15.5,83.3 C15.3,82.5 15.7,81.7 16.5,81.4 C19.1,80.6 23,79.9 27.7,79.3 C29.1,76.9 30.6,73.6 31.8,57.9 C33.2,40 32.6,34.5 31.8,29.3 C31.7,28.5 31.5,27.7 31.3,26.8 C30.2,21.5 28.9,15 38.2,10.6 C47.7,6.2 53.7,6.1 58.7,10.3 C61.1,12.3 62.6,13.9 63.8,15 C64.6,15.8 65.2,16.4 65.6,16.7 L66,17 C66.9,17.6 68.1,18.5 69.3,18.7 C71.4,19.1 74.1,20.2 74.4,22.2 C74.6,23.4 74.4,27 72.1,28.7 C71.9,28.8 71.8,28.9 71.6,29.1 C69.7,30.5 66.1,33.2 60.2,33.5 C54.4,33.8 54.4,33.8 54,35.5 C53.4,37.9 53.5,40.2 53.6,42.2 L53.6,42.4 C53.7,44.4 53.9,46.5 55.3,49.5 C55.5,50 55.9,50.7 56.3,51.6 C59.1,57.3 64.9,69.1 63.7,76.1 C63.7,76.5 63.6,76.9 63.6,77.3 C63.5,78.2 63.4,79 63.2,79.7 C67.2,80.3 71.1,81.2 74.5,82.5 C75.3,82.7 75.7,83.6 75.4,84.4 L75.4,84.4 Z M45.4,78.4 C44.8,76.4 44.1,74.6 43.4,73.2 C40.4,67.1 43.2,61.4 44.5,59 C44.6,58.8 44.7,58.6 44.7,58.5 C44.9,58 45.5,57.8 46,58 C46.5,58.2 46.7,58.8 46.5,59.3 C46.4,59.5 46.3,59.6 46.2,59.8 C45.1,62 42.6,67 45.1,72.2 C45.9,73.9 46.7,76 47.4,78.4 C48.6,78.4 49.9,78.5 51.1,78.5 C50.4,75.1 50.2,72.6 50.5,70.8 C51.3,66.5 51.6,63.9 51.6,62.9 C51.6,62.3 52,61.9 52.5,61.8 C53.1,61.8 53.5,62.2 53.6,62.7 C53.7,64 53.4,66.5 52.5,71.1 C52.2,72.7 52.4,75.2 53.2,78.6 C55.6,78.7 57.9,79 60.2,79.2 C60.4,78.7 60.5,78 60.6,76.9 C60.6,76.5 60.7,76 60.7,75.5 C61.8,69.3 56.1,57.7 53.6,52.7 C53.1,51.8 52.8,51 52.6,50.5 C51.1,47.1 50.8,44.5 50.7,42.3 L50.7,42.1 C50.6,40 50.4,37.4 51.1,34.6 C52,30.8 54,30.7 60,30.3 C61.7,30.2 63.1,29.9 64.4,29.5 C62.6,28.9 60.7,27.9 59.7,27.1 C59.5,26.9 59.4,26.6 59.6,26.3 C59.8,26.1 60.1,26 60.4,26.2 C61.7,27.1 64.1,28.3 66.1,28.8 C67.8,28 69,27.1 69.9,26.5 C70.1,26.3 70.3,26.2 70.5,26.1 C70.5,26.1 70.5,26.1 70.6,26 C69.9,25 68.8,23.1 68.3,21.4 C66.6,21 65.3,20 64.3,19.3 L63.9,19 C63.3,18.5 62.6,17.9 61.7,17 C60.6,15.9 59.1,14.4 56.8,12.5 C53.5,9.7 49.2,8.7 39.5,13.2 C32.3,16.5 33.2,20.9 34.3,26 C34.5,26.9 34.7,27.7 34.8,28.6 C35.7,34.1 36.2,39.7 34.8,57.9 C33.8,71 32.6,75.9 31.3,78.7 C35.6,78.6 40.4,78.4 45.4,78.4 L45.4,78.4 Z M54.6,20.9 L54.6,20.9 C54.6,20.9 54.7,20.9 54.8,21 C54.9,21.1 55.1,21.2 55.3,21.2 C55.7,21.4 56.2,21.5 56.8,21.7 C57.3,21.8 57.9,21.8 58.3,21.8 L58.5,21.8 C59.9,21.8 61,20.7 61,19.3 C61,17.9 59.9,16.8 58.5,16.8 C57.1,16.8 56,17.9 56,19.3 C56,19.6 56.1,19.9 56.1,20.1 L55.6,20.1 C55.4,20.1 55.3,20.1 55.2,20 L55,20 C54.8,19.9 54.5,20 54.4,20.2 C54.3,20.5 54.4,20.8 54.6,20.9 L54.6,20.9 Z" id="Shape" fill="#000000" sketch:type="MSShapeGroup"></path>
        </g>
    </g>
</svg>