<?xml version="1.0" encoding="UTF-8" ?>
<!DOCTYPE svg PUBLIC "-//W3C//DTD SVG 1.1//EN" "http://www.w3.org/Graphics/SVG/1.1/DTD/svg11.dtd">
<svg width="762pt" height="761pt" viewBox="0 0 762 761" version="1.1" xmlns="http://www.w3.org/2000/svg">
<path fill="#fdfeff" d=" M 0.00 0.00 L 762.00 0.00 L 762.00 761.00 L 389.57 761.00 C 430.45 759.87 471.22 752.61 509.70 738.67 C 575.58 715.10 634.52 672.74 678.12 618.05 C 723.19 561.88 751.75 492.63 759.07 420.97 C 767.39 343.35 751.28 263.22 712.89 195.18 C 680.32 136.86 632.04 87.45 574.54 53.45 C 536.50 30.89 494.47 15.08 450.98 7.02 C 382.24 -5.76 309.97 0.58 244.68 25.73 C 196.41 44.28 151.96 72.78 115.09 109.04 C 79.11 144.10 50.26 186.42 30.69 232.68 C 1.35 301.67 -6.55 379.43 7.63 453.00 C 15.53 494.28 30.41 534.22 51.45 570.61 C 83.67 626.56 130.38 674.07 185.82 707.17 C 220.25 727.85 258.02 742.94 297.20 751.74 C 321.88 757.36 347.14 760.19 372.42 761.00 L 0.00 761.00 L 0.00 0.00 Z" />
<path fill="#5aabe3" d=" M 244.68 25.73 C 309.97 0.58 382.24 -5.76 450.98 7.02 C 494.47 15.08 536.50 30.89 574.54 53.45 C 632.04 87.45 680.32 136.86 712.89 195.18 C 751.28 263.22 767.39 343.35 759.07 420.97 C 751.75 492.63 723.19 561.88 678.12 618.05 C 634.52 672.74 575.58 715.10 509.70 738.67 C 471.22 752.61 430.45 759.87 389.57 761.00 L 372.42 761.00 C 347.14 760.19 321.88 757.36 297.20 751.74 C 258.02 742.94 220.25 727.85 185.82 707.17 C 130.38 674.07 83.67 626.56 51.45 570.61 C 30.41 534.22 15.53 494.28 7.63 453.00 C -6.55 379.43 1.35 301.67 30.69 232.68 C 50.26 186.42 79.11 144.10 115.09 109.04 C 151.96 72.78 196.41 44.28 244.68 25.73 Z" />
<path fill="#fdfeff" d=" M 193.54 202.64 C 195.65 202.20 197.80 202.02 199.96 201.99 C 320.61 202.00 441.26 202.00 561.92 201.99 C 572.97 201.80 583.96 208.08 588.93 218.03 C 591.81 223.18 592.57 229.18 592.52 235.00 C 592.49 332.67 592.51 430.34 592.50 528.02 C 592.56 535.16 590.57 542.44 586.06 548.07 C 580.61 555.09 571.88 559.46 562.99 559.51 C 444.34 559.49 325.69 559.51 207.05 559.50 C 201.32 559.46 195.41 560.01 189.93 557.97 C 177.75 554.12 169.19 541.75 169.50 529.03 C 169.50 430.01 169.48 331.00 169.51 231.99 C 169.34 218.13 179.87 205.13 193.54 202.64 Z" />
<path fill="#01a4f4" d=" M 229.51 262.00 C 330.50 262.00 431.50 262.00 532.49 262.00 C 532.50 341.16 532.50 420.33 532.49 499.49 C 431.50 499.50 330.50 499.50 229.51 499.49 C 229.50 420.33 229.50 341.16 229.51 262.00 Z" />
</svg>
