<svg version="1.1" xmlns="http://www.w3.org/2000/svg" xmlns:xlink="http://www.w3.org/1999/xlink" x="0px" y="0px"
   width="50px" height="50px" viewBox="0 0 50 50">
  <style>
    <![CDATA[
      #yellow {
        animation: yellowPath 4s infinite;
        transform-origin: center;
      }
      @keyframes yellowPath {
        0%, 34%, 76% {
          transform: scale(1);
        }
        14%, 56%, 96% {
          transform: scaleX(1.08);
        }
        34%, 58%, 86% {
          transform: scaleY(1.1);
        }
      }
      #blue {
        animation: bluePath 4s infinite;
        transform-origin: center;
      }
      @keyframes bluePath {
        0%, 21%, 84% {
          transform: scale(1);
        }
        22%, 48%, 92% {
          transform: scaleX(1.08);
        }
        11%, 65%, 96% {
          transform: scaleY(1.1);
        }
      }
    ]]>
  </style>
  <defs>
    <filter id="icon" x="0" y="0" width="1" height="1">
      <feImage xlink:href="#yellow" result="yellow"/>
      <feImage xlink:href="#blue" result="blue"/>
      <feBlend mode="multiply" in="yellow" in2="blue" />
    </filter>
    <path id="yellow" fill-rule="evenodd" clip-rule="evenodd" fill="#FFE240" d="M22.7,23.3c-0.2,0.1-0.3,0.4-0.3,0.6l0,2.2c0,0.2,0.2,0.5,0.3,0.6l2,1.1 c0.2,0.1,0.5,0.1,0.7,0c0,0,8.8-5,9-5.2c0.4-0.2,0.6-0.7,0.7-1.1l0-0.8c0-0.8-0.6-1.8-1.3-2.2l-7.4-4.2c-0.7-0.4-1.9-0.4-2.6,0 l-7.4,4.2c-0.7,0.4-1.3,1.4-1.3,2.2l0,8.5c0,0.8,0.6,1.8,1.3,2.2l7.4,4.2c0.6,0.4,1.7,0.4,2.4,0.1l7.8-4.5c0.6-0.4,1-1.2,1.1-2v-3.5 c0-0.1,0-0.2-0.1-0.3c-0.2-0.4-0.7-0.5-1-0.3c0,0-8.3,4.7-8.3,4.7c-0.3,0.2-0.9,0.2-1.2,0l-3.5-2c-0.3-0.2-0.6-0.6-0.6-1v-4.2 c0-0.3,0.3-0.7,0.5-0.9l3.6-2.1c0.3-0.1,0.8-0.1,1.1,0l0.7,0.4c0.1,0.1,0.2,0.3,0.2,0.4c0,0.2-0.1,0.4-0.3,0.5L22.7,23.3z M5,24.2 C5,13.6,14,5,25,5c11,0,20,8.6,20,19.2v1.6C45,36.4,36,45,25,45C14,45,5,36.4,5,25.8V24.2z"/>
    <path id="blue" fill-rule="evenodd" clip-rule="evenodd" fill="#40ECFF" d="M22.7,23.3c-0.2,0.1-0.3,0.4-0.3,0.6l0,2.2c0,0.2,0.2,0.5,0.3,0.6l2,1.1 c0.2,0.1,0.5,0.1,0.7,0c0,0,8.8-5,9-5.2c0.4-0.2,0.6-0.7,0.7-1.1l0-0.8c0-0.8-0.6-1.8-1.3-2.2l-7.4-4.2c-0.7-0.4-1.9-0.4-2.6,0 l-7.4,4.2c-0.7,0.4-1.3,1.4-1.3,2.2l0,8.5c0,0.8,0.6,1.8,1.3,2.2l7.4,4.2c0.6,0.4,1.7,0.4,2.4,0.1l7.8-4.5c0.6-0.4,1-1.2,1.1-2v-3.5 c0-0.1,0-0.2-0.1-0.3c-0.2-0.4-0.7-0.5-1-0.3c0,0-8.3,4.7-8.3,4.7c-0.3,0.2-0.9,0.2-1.2,0l-3.5-2c-0.3-0.2-0.6-0.6-0.6-1v-4.2 c0-0.3,0.3-0.7,0.5-0.9l3.6-2.1c0.3-0.1,0.8-0.1,1.1,0l0.7,0.4c0.1,0.1,0.2,0.3,0.2,0.4c0,0.2-0.1,0.4-0.3,0.5L22.7,23.3z M5,24.2 C5,13.6,14,5,25,5c11,0,20,8.6,20,19.2v1.6C45,36.4,36,45,25,45C14,45,5,36.4,5,25.8V24.2z"/>
  </defs>
  <rect width="100%" height="100%" filter="url(#icon)"/>
</svg>
