<?xml version="1.0" encoding="UTF-8" ?>
<!DOCTYPE svg PUBLIC "-//W3C//DTD SVG 1.1//EN" "http://www.w3.org/Graphics/SVG/1.1/DTD/svg11.dtd">
<svg width="305pt" height="52pt" viewBox="0 0 305 52" version="1.1" xmlns="http://www.w3.org/2000/svg">
<path fill="#1e2127" d=" M 0.00 0.00 L 305.00 0.00 L 305.00 52.00 L 0.00 52.00 L 0.00 0.00 Z" />
<path fill="#ffffff" d=" M 26.77 14.99 C 30.20 10.19 36.27 8.15 41.98 8.21 C 44.05 8.22 46.89 7.81 47.91 10.14 C 49.31 15.70 49.01 22.45 44.64 26.67 C 42.32 29.56 38.34 31.26 37.37 35.07 C 35.81 39.46 34.08 43.79 32.22 48.06 C 32.15 44.25 32.74 40.45 32.34 36.64 C 30.56 37.65 28.84 38.79 26.92 39.50 C 23.64 37.07 20.59 34.17 18.17 30.89 C 18.35 29.14 19.11 27.53 19.65 25.87 C 15.63 25.41 11.63 26.05 7.63 26.30 C 12.15 24.17 16.80 22.33 21.49 20.62 C 24.28 19.99 25.06 16.91 26.77 14.99 Z" />
<path fill="#ffffff" d=" M 95.30 15.15 C 95.82 12.91 98.16 13.53 99.86 13.65 C 99.87 14.57 99.88 16.41 99.89 17.32 C 98.02 17.68 95.14 17.89 95.30 15.15 Z" />
<path fill="#ffffff" d=" M 81.40 15.44 C 84.71 13.57 88.58 14.54 91.96 15.68 C 91.49 16.86 91.02 18.05 90.55 19.23 C 88.19 18.61 85.38 17.02 83.22 18.98 C 80.33 21.65 80.46 26.38 82.17 29.67 C 84.30 32.51 88.16 31.13 91.01 30.52 C 91.00 31.48 90.98 33.38 90.96 34.33 C 86.68 35.25 81.03 35.94 78.29 31.67 C 75.38 26.65 75.76 18.42 81.40 15.44 Z" />
<path fill="#ffffff" d=" M 160.18 14.64 C 164.06 14.64 167.94 14.63 171.82 14.64 C 171.81 15.88 171.81 17.12 171.81 18.36 C 169.40 18.36 167.00 18.37 164.59 18.36 C 164.60 19.37 164.60 21.39 164.61 22.40 C 166.85 22.39 169.10 22.39 171.35 22.39 C 171.36 23.29 171.36 25.10 171.37 26.00 C 169.11 26.00 166.86 26.00 164.61 26.00 C 164.61 27.73 164.61 29.46 164.61 31.19 C 167.01 31.18 169.41 31.19 171.82 31.18 C 171.81 32.39 171.81 33.60 171.82 34.82 C 167.94 34.82 164.06 34.82 160.18 34.82 C 160.18 28.09 160.18 21.37 160.18 14.64 Z" />
<path fill="#ffffff" d=" M 95.64 19.40 C 97.03 19.40 98.42 19.40 99.81 19.38 C 99.82 24.53 99.82 29.67 99.82 34.82 C 98.42 34.81 97.03 34.81 95.64 34.82 C 95.63 29.68 95.63 24.54 95.64 19.40 Z" />
<path fill="#ffffff" d=" M 105.36 20.30 C 108.35 18.31 112.10 19.37 115.32 20.13 C 114.95 21.25 114.58 22.38 114.20 23.50 C 111.91 22.88 109.55 22.47 107.18 22.86 C 109.15 25.13 112.25 25.64 114.52 27.48 C 116.66 29.61 115.39 33.67 112.60 34.53 C 109.70 35.45 106.61 34.87 103.67 34.47 C 103.65 33.55 103.63 31.71 103.61 30.80 C 106.29 31.32 109.67 33.23 111.78 30.49 C 109.64 29.15 107.23 28.31 105.15 26.88 C 103.03 25.33 103.11 21.69 105.36 20.30 Z" />
<path fill="#ffffff" d=" M 121.39 20.26 C 124.20 18.46 127.70 19.25 130.74 19.92 C 130.36 21.03 129.98 22.14 129.61 23.25 C 127.48 22.97 124.37 21.60 123.04 24.11 C 122.45 26.40 122.11 29.27 123.84 31.17 C 125.97 32.27 128.31 31.12 130.41 30.57 C 130.39 31.50 130.35 33.36 130.33 34.29 C 126.75 35.14 121.90 35.94 119.45 32.45 C 117.29 28.70 117.54 22.86 121.39 20.26 Z" />
<path fill="#ffffff" d=" M 137.53 19.68 C 141.13 18.25 145.98 19.53 147.43 23.39 C 148.59 26.92 148.33 31.73 144.92 33.96 C 141.37 36.10 135.72 35.20 133.96 31.12 C 132.20 27.21 133.13 21.39 137.53 19.68 Z" />
<path fill="#ffffff" d=" M 180.41 20.55 C 183.23 18.64 186.83 18.81 189.52 20.88 C 192.29 18.69 197.33 18.18 199.02 21.93 C 200.16 26.11 199.42 30.54 199.60 34.82 C 198.12 34.81 196.65 34.81 195.17 34.81 C 195.10 31.23 195.46 27.61 194.94 24.05 C 194.49 22.01 192.23 22.92 190.77 22.71 C 189.56 26.64 190.09 30.78 190.00 34.82 C 188.54 34.81 187.09 34.81 185.63 34.82 C 185.62 30.72 185.84 26.59 185.16 22.54 C 183.66 22.87 181.02 22.32 180.81 24.49 C 180.11 27.88 180.41 31.38 180.36 34.82 C 178.96 34.81 177.57 34.81 176.18 34.82 C 176.22 29.55 176.08 24.29 176.30 19.02 C 177.71 19.40 179.10 19.88 180.41 20.55 Z" />
<path fill="#ffffff" d=" M 205.61 33.37 C 200.52 28.95 203.52 18.09 211.05 19.16 C 215.92 19.03 217.98 24.17 217.52 28.33 C 213.99 28.38 210.45 28.27 206.92 28.58 C 208.66 32.72 213.23 31.72 216.64 30.77 C 216.63 31.63 216.59 33.35 216.58 34.21 C 213.02 35.04 208.71 35.88 205.61 33.37 Z" />
<path fill="#ffffff" d=" M 221.39 19.41 C 222.51 19.39 223.63 19.38 224.75 19.36 C 224.82 20.00 224.94 21.28 225.01 21.92 C 226.72 20.10 228.96 19.07 231.44 18.82 C 231.41 20.25 231.36 21.68 231.28 23.11 C 229.47 23.51 227.06 23.15 226.04 25.09 C 225.26 28.27 225.70 31.58 225.61 34.82 C 224.20 34.81 222.79 34.81 221.39 34.82 C 221.39 29.68 221.39 24.55 221.39 19.41 Z" />
<path fill="#ffffff" d=" M 236.06 20.00 C 239.96 18.34 244.38 19.71 248.49 19.52 C 248.02 20.76 247.33 21.88 246.14 22.55 C 246.21 24.43 246.48 26.60 245.02 28.06 C 242.90 30.07 239.68 29.67 237.07 30.47 C 239.67 32.23 242.94 31.15 245.74 32.15 C 249.24 33.98 248.03 39.41 244.62 40.63 C 241.04 41.99 236.24 42.42 233.26 39.59 C 231.24 37.45 233.12 34.89 235.04 33.57 C 234.08 31.94 234.42 30.24 235.52 28.79 C 233.18 26.35 232.73 21.79 236.06 20.00 Z" />
<path fill="#ffffff" d=" M 250.52 23.50 C 252.23 18.42 260.03 17.59 263.02 21.86 C 264.24 23.79 263.90 26.19 264.13 28.36 C 260.66 28.36 257.20 28.31 253.74 28.51 C 254.49 29.48 255.18 30.50 256.06 31.36 C 258.48 32.10 260.98 31.21 263.37 30.75 C 263.37 31.61 263.36 33.34 263.36 34.21 C 259.81 35.03 255.62 35.84 252.47 33.48 C 249.61 31.12 249.53 26.80 250.52 23.50 Z" />
<path fill="#1e2127" d=" M 30.40 21.51 C 33.77 19.08 37.43 25.04 33.79 27.12 C 30.26 29.47 26.54 23.48 30.40 21.51 Z" />
<path fill="#1e2127" d=" M 207.12 25.34 C 208.13 24.11 208.87 21.91 210.84 22.35 C 212.39 22.34 212.90 24.39 213.92 25.27 C 211.65 25.37 209.39 25.40 207.12 25.34 Z" />
<path fill="#1e2127" d=" M 238.34 22.42 C 241.19 19.60 244.12 25.64 240.87 26.94 C 238.32 28.38 236.72 24.25 238.34 22.42 Z" />
<path fill="#1e2127" d=" M 253.91 25.34 C 254.87 24.28 255.43 22.26 257.14 22.35 C 259.01 22.04 259.62 24.19 260.64 25.30 C 258.40 25.39 256.16 25.38 253.91 25.34 Z" />
<path fill="#1e2127" d=" M 138.47 23.46 C 139.99 21.71 143.28 22.57 143.43 25.01 C 143.89 27.28 144.00 31.54 140.83 31.63 C 136.85 31.78 136.97 25.88 138.47 23.46 Z" />
<path fill="#ffffff" d=" M 14.00 38.50 C 15.12 36.34 16.82 34.53 19.02 33.47 C 17.66 35.43 15.96 37.13 14.00 38.50 Z" />
<path fill="#1e2127" d=" M 236.59 35.42 C 239.02 35.30 243.54 33.63 244.17 37.03 C 242.08 39.16 238.95 38.72 236.32 38.15 C 236.39 37.47 236.52 36.10 236.59 35.42 Z" />
<path fill="#ffffff" d=" M 14.92 42.64 C 16.63 39.99 18.90 37.72 21.50 35.92 C 19.92 38.68 17.56 40.91 14.92 42.64 Z" />
<path fill="#ffffff" d=" M 22.58 39.23 C 23.91 38.33 23.91 40.30 22.99 40.75 C 22.08 41.53 21.13 43.18 19.74 42.82 C 19.49 41.21 21.51 40.13 22.58 39.23 Z" />
</svg>
