<svg xmlns="http://www.w3.org/2000/svg" viewBox="0 0 241.358 39" enable-background="new 0 0 241.358 39"><path fill="#8DC63F" d="M0 0h38.975v39h-38.975v-39z"/><path fill="#3D4351" d="M21.268 9.701c2.928 0 5.045 1.015 7.015 2.695.233.233.261.58.029.811-.261.261-.58.551-.811.812-.261.289-.435.261-.753-.029-1.478-1.304-3.566-2.261-5.508-2.261-4.58 0-8.059 3.827-8.059 8.32 0 4.465 3.479 8.379 8.059 8.379 3.189 0 5.218-1.217 5.218-1.217v-4.059h-3.333c-.318 0-.551-.233-.551-.522v-1.073c0-.318.233-.551.551-.551h5.016c.289 0 .522.261.522.551v6.639c0 .146-.116.376-.233.464 0 0-2.957 1.913-7.16 1.913-5.798 0-10.465-4.609-10.465-10.407-.003-5.797 4.664-10.465 10.463-10.465z"/><path fill="#fff" d="M71.686 12.795c1.958 0 3.569.714 4.956 1.896.163.163.184.407.021.572l-.917.958c-.163.184-.326.163-.53-.021-.958-.836-2.223-1.386-3.467-1.386-2.896 0-5.118 2.447-5.118 5.303 0 2.835 2.223 5.282 5.118 5.282 1.692 0 2.855-.612 3.06-.694v-2.284h-1.999c-.225 0-.387-.163-.387-.366v-1.184c0-.225.163-.387.387-.387h3.712c.204 0 .366.184.366.387l.021 4.936c0 .103-.082.265-.163.326 0 0-2.101 1.345-5.057 1.345-4.059 0-7.342-3.243-7.342-7.321s3.279-7.362 7.339-7.362zm12.5.593c0-.204.163-.387.387-.387h8.158c.225 0 .387.184.387.387v1.142c0 .204-.163.387-.387.387h-6.445v4.16h5.446c.204 0 .387.184.387.387v1.142c0 .225-.184.387-.387.387h-5.446v4.385h6.445c.225 0 .387.184.387.387v1.122c0 .204-.163.387-.387.387h-8.158c-.225 0-.387-.184-.387-.387v-13.499zm22.351-.593c2.06 0 3.549.694 4.936 1.896.184.163.184.407.021.572l-.897.917c-.144.184-.326.184-.51 0-.958-.836-2.264-1.366-3.529-1.366-2.916 0-5.118 2.447-5.118 5.303 0 2.855 2.223 5.282 5.139 5.282 1.489 0 2.529-.592 3.508-1.346.184-.143.366-.122.489-.021l.938.917c.163.143.123.407-.021.551-1.386 1.345-3.14 1.978-4.956 1.978-4.079 0-7.363-3.243-7.363-7.321s3.285-7.362 7.363-7.362zm11.95.694c0-.265.204-.489.489-.489h1.183c.265 0 .489.225.489.489v5.649l5.751-5.935c.082-.103.225-.204.387-.204h1.53c.366 0 .572.428.285.734l-5.894 5.997 6.241 6.873c.163.204.062.673-.366.673h-1.632c-.204 0-.326-.082-.366-.143l-5.935-6.689v6.343c0 .265-.225.489-.489.489h-1.183c-.285 0-.489-.225-.489-.489l-.001-13.298zm22.779-.694c4.079 0 7.342 3.284 7.342 7.363s-3.263 7.321-7.342 7.321-7.321-3.243-7.321-7.321 3.243-7.363 7.321-7.363zm0 12.646c2.916 0 5.303-2.366 5.303-5.283 0-2.896-2.386-5.323-5.303-5.323-2.896 0-5.283 2.427-5.283 5.323.002 2.917 2.387 5.283 5.283 5.283zm14.336-12.053c0-.204.163-.387.387-.387h4.567c2.468 0 4.242 1.632 4.242 3.773 0 1.571-1.163 2.692-2.121 3.243 1.082.448 2.55 1.448 2.55 3.324 0 2.284-1.876 3.936-4.446 3.936h-4.793c-.225 0-.387-.184-.387-.387l.001-13.502zm5.161 12.011c1.244 0 2.202-.958 2.202-2.223 0-1.244-1.183-2.142-2.509-2.142h-2.794v4.364h3.101zm-.328-6.198c1.305 0 2.101-.958 2.101-2.182 0-1.244-.795-2.101-2.101-2.101h-2.753v4.283h2.753zm18.211-6.406c4.079 0 7.342 3.284 7.342 7.363s-3.263 7.321-7.342 7.321-7.321-3.243-7.321-7.321 3.243-7.363 7.321-7.363zm0 12.646c2.916 0 5.303-2.366 5.303-5.283 0-2.896-2.386-5.323-5.303-5.323-2.896 0-5.283 2.427-5.283 5.323.002 2.917 2.388 5.283 5.283 5.283zm12.339 1.305l6.261-13.725c.062-.123.245-.225.346-.225h.204c.103 0 .285.103.346.225l6.22 13.725c.123.265-.041.53-.347.53h-1.285c-.245 0-.387-.123-.469-.306l-1.264-2.794h-6.669l-1.244 2.794c-.062.143-.225.306-.469.306h-1.285c-.304 0-.467-.265-.345-.53zm9.238-4.323l-2.509-5.587h-.103l-2.488 5.587h5.1zm10.257-9.035c0-.204.163-.387.387-.387h5.546c2.447 0 4.446 1.937 4.446 4.364 0 1.876-1.244 3.426-3.019 4.139l2.794 5.18c.143.265 0 .592-.347.592h-1.591c-.164 0-.285-.103-.326-.184l-2.712-5.405h-3.08v5.2c0 .204-.184.387-.387.387h-1.325c-.225 0-.387-.184-.387-.387.001.001.001-13.499.001-13.499zm5.772 6.547c1.326 0 2.488-1.122 2.488-2.529 0-1.326-1.163-2.427-2.488-2.427h-3.629v4.956h3.629zm11.869-6.547c0-.204.163-.387.366-.387h4.69c3.936 0 7.158 3.202 7.158 7.117 0 3.957-3.222 7.158-7.158 7.158h-4.69c-.204 0-.366-.184-.366-.387v-13.501zm4.771 11.95c2.998 0 5.18-2.202 5.18-5.221 0-2.998-2.182-5.18-5.18-5.18h-2.692v10.401h2.692z"/></svg>