<?xml version="1.0" encoding="UTF-8" standalone="no"?>
<svg width="225px" height="39px" viewBox="0 0 225 39" version="1.1" xmlns="http://www.w3.org/2000/svg" xmlns:xlink="http://www.w3.org/1999/xlink" xmlns:sketch="http://www.bohemiancoding.com/sketch/ns">
    <!-- Generator: Sketch 3.2.2 (9983) - http://www.bohemiancoding.com/sketch -->
    <title>Slice 1</title>
    <desc>Created with Sketch.</desc>
    <defs></defs>
    <g id="Page-1" stroke="none" stroke-width="1" fill="none" fill-rule="evenodd" sketch:type="MSPage">
        <g id="geckoboard2" sketch:type="MSLayerGroup">
            <path d="M0,0 L38.975,0 L38.975,39 L0,39 L0,0 L0,0 Z" id="Shape" fill="#8DC63F" sketch:type="MSShapeGroup"></path>
            <path d="M21.268,9.701 C24.196,9.701 26.313,10.716 28.283,12.396 C28.516,12.629 28.544,12.976 28.312,13.207 C28.051,13.468 27.732,13.758 27.501,14.019 C27.24,14.308 27.066,14.28 26.748,13.99 C25.27,12.686 23.182,11.729 21.24,11.729 C16.66,11.729 13.181,15.556 13.181,20.049 C13.181,24.514 16.66,28.428 21.24,28.428 C24.429,28.428 26.458,27.211 26.458,27.211 L26.458,23.152 L23.125,23.152 C22.807,23.152 22.574,22.919 22.574,22.63 L22.574,21.557 C22.574,21.239 22.807,21.006 23.125,21.006 L28.141,21.006 C28.43,21.006 28.663,21.267 28.663,21.557 L28.663,28.196 C28.663,28.342 28.547,28.572 28.43,28.66 C28.43,28.66 25.473,30.573 21.27,30.573 C15.472,30.573 10.805,25.964 10.805,20.166 C10.802,14.369 15.469,9.701 21.268,9.701 L21.268,9.701 Z" id="Shape" fill="#3D4351" sketch:type="MSShapeGroup"></path>
            <path d="M55.686,12.795 C57.644,12.795 59.255,13.509 60.642,14.691 C60.805,14.854 60.826,15.098 60.663,15.263 L59.746,16.221 C59.583,16.405 59.42,16.384 59.216,16.2 C58.258,15.364 56.993,14.814 55.749,14.814 C52.853,14.814 50.631,17.261 50.631,20.117 C50.631,22.952 52.854,25.399 55.749,25.399 C57.441,25.399 58.604,24.787 58.809,24.705 L58.809,22.421 L56.81,22.421 C56.585,22.421 56.423,22.258 56.423,22.055 L56.423,20.871 C56.423,20.646 56.586,20.484 56.81,20.484 L60.522,20.484 C60.726,20.484 60.888,20.668 60.888,20.871 L60.909,25.807 C60.909,25.91 60.827,26.072 60.746,26.133 C60.746,26.133 58.645,27.478 55.689,27.478 C51.63,27.478 48.347,24.235 48.347,20.157 C48.347,16.079 51.626,12.795 55.686,12.795 L55.686,12.795 Z M68.186,13.388 C68.186,13.184 68.349,13.001 68.573,13.001 L76.731,13.001 C76.956,13.001 77.118,13.185 77.118,13.388 L77.118,14.53 C77.118,14.734 76.955,14.917 76.731,14.917 L70.286,14.917 L70.286,19.077 L75.732,19.077 C75.936,19.077 76.119,19.261 76.119,19.464 L76.119,20.606 C76.119,20.831 75.935,20.993 75.732,20.993 L70.286,20.993 L70.286,25.378 L76.731,25.378 C76.956,25.378 77.118,25.562 77.118,25.765 L77.118,26.887 C77.118,27.091 76.955,27.274 76.731,27.274 L68.573,27.274 C68.348,27.274 68.186,27.09 68.186,26.887 L68.186,13.388 L68.186,13.388 Z M90.537,12.795 C92.597,12.795 94.086,13.489 95.473,14.691 C95.657,14.854 95.657,15.098 95.494,15.263 L94.597,16.18 C94.453,16.364 94.271,16.364 94.087,16.18 C93.129,15.344 91.823,14.814 90.558,14.814 C87.642,14.814 85.44,17.261 85.44,20.117 C85.44,22.972 87.663,25.399 90.579,25.399 C92.068,25.399 93.108,24.807 94.087,24.053 C94.271,23.91 94.453,23.931 94.576,24.032 L95.514,24.949 C95.677,25.092 95.637,25.356 95.493,25.5 C94.107,26.845 92.353,27.478 90.537,27.478 C86.458,27.478 83.174,24.235 83.174,20.157 C83.174,16.079 86.459,12.795 90.537,12.795 L90.537,12.795 Z M102.487,13.489 C102.487,13.224 102.691,13 102.976,13 L104.159,13 C104.424,13 104.648,13.225 104.648,13.489 L104.648,19.138 L110.399,13.203 C110.481,13.1 110.624,12.999 110.786,12.999 L112.316,12.999 C112.682,12.999 112.888,13.427 112.601,13.733 L106.707,19.73 L112.948,26.603 C113.111,26.807 113.01,27.276 112.582,27.276 L110.95,27.276 C110.746,27.276 110.624,27.194 110.584,27.133 L104.649,20.444 L104.649,26.787 C104.649,27.052 104.424,27.276 104.16,27.276 L102.977,27.276 C102.692,27.276 102.488,27.051 102.488,26.787 L102.487,13.489 L102.487,13.489 Z M125.266,12.795 C129.345,12.795 132.608,16.079 132.608,20.158 C132.608,24.237 129.345,27.479 125.266,27.479 C121.187,27.479 117.945,24.236 117.945,20.158 C117.945,16.08 121.188,12.795 125.266,12.795 L125.266,12.795 Z M125.266,25.441 C128.182,25.441 130.569,23.075 130.569,20.158 C130.569,17.262 128.183,14.835 125.266,14.835 C122.37,14.835 119.983,17.262 119.983,20.158 C119.985,23.075 122.37,25.441 125.266,25.441 L125.266,25.441 Z M139.602,13.388 C139.602,13.184 139.765,13.001 139.989,13.001 L144.556,13.001 C147.024,13.001 148.798,14.633 148.798,16.774 C148.798,18.345 147.635,19.466 146.677,20.017 C147.759,20.465 149.227,21.465 149.227,23.341 C149.227,25.625 147.351,27.277 144.781,27.277 L139.988,27.277 C139.763,27.277 139.601,27.093 139.601,26.89 L139.602,13.388 L139.602,13.388 Z M144.763,25.399 C146.007,25.399 146.965,24.441 146.965,23.176 C146.965,21.932 145.782,21.034 144.456,21.034 L141.662,21.034 L141.662,25.398 L144.763,25.398 L144.763,25.399 Z M144.435,19.201 C145.74,19.201 146.536,18.243 146.536,17.019 C146.536,15.775 145.741,14.918 144.435,14.918 L141.682,14.918 L141.682,19.201 L144.435,19.201 L144.435,19.201 Z M162.646,12.795 C166.725,12.795 169.988,16.079 169.988,20.158 C169.988,24.237 166.725,27.479 162.646,27.479 C158.567,27.479 155.325,24.236 155.325,20.158 C155.325,16.08 158.568,12.795 162.646,12.795 L162.646,12.795 Z M162.646,25.441 C165.562,25.441 167.949,23.075 167.949,20.158 C167.949,17.262 165.563,14.835 162.646,14.835 C159.75,14.835 157.363,17.262 157.363,20.158 C157.365,23.075 159.751,25.441 162.646,25.441 L162.646,25.441 Z M174.985,26.746 L181.246,13.021 C181.308,12.898 181.491,12.796 181.592,12.796 L181.796,12.796 C181.899,12.796 182.081,12.899 182.142,13.021 L188.362,26.746 C188.485,27.011 188.321,27.276 188.015,27.276 L186.73,27.276 C186.485,27.276 186.343,27.153 186.261,26.97 L184.997,24.176 L178.328,24.176 L177.084,26.97 C177.022,27.113 176.859,27.276 176.615,27.276 L175.33,27.276 C175.026,27.276 174.863,27.011 174.985,26.746 L174.985,26.746 Z M184.223,22.423 L181.714,16.836 L181.611,16.836 L179.123,22.423 L184.223,22.423 L184.223,22.423 Z M194.48,13.388 C194.48,13.184 194.643,13.001 194.867,13.001 L200.413,13.001 C202.86,13.001 204.859,14.938 204.859,17.365 C204.859,19.241 203.615,20.791 201.84,21.504 L204.634,26.684 C204.777,26.949 204.634,27.276 204.287,27.276 L202.696,27.276 C202.532,27.276 202.411,27.173 202.37,27.092 L199.658,21.687 L196.578,21.687 L196.578,26.887 C196.578,27.091 196.394,27.274 196.191,27.274 L194.866,27.274 C194.641,27.274 194.479,27.09 194.479,26.887 C194.48,26.888 194.48,13.388 194.48,13.388 L194.48,13.388 Z M200.252,19.935 C201.578,19.935 202.74,18.813 202.74,17.406 C202.74,16.08 201.577,14.979 200.252,14.979 L196.623,14.979 L196.623,19.935 L200.252,19.935 L200.252,19.935 Z M212.121,13.388 C212.121,13.184 212.284,13.001 212.487,13.001 L217.177,13.001 C221.113,13.001 224.335,16.203 224.335,20.118 C224.335,24.075 221.113,27.276 217.177,27.276 L212.487,27.276 C212.283,27.276 212.121,27.092 212.121,26.889 L212.121,13.388 L212.121,13.388 Z M216.892,25.338 C219.89,25.338 222.072,23.136 222.072,20.117 C222.072,17.119 219.89,14.937 216.892,14.937 L214.2,14.937 L214.2,25.338 L216.892,25.338 L216.892,25.338 Z" id="Shape" fill="#FFFFFF" sketch:type="MSShapeGroup"></path>
        </g>
    </g>
</svg>