<?xml version="1.0" encoding="UTF-8" ?>
<!DOCTYPE svg PUBLIC "-//W3C//DTD SVG 1.1//EN" "http://www.w3.org/Graphics/SVG/1.1/DTD/svg11.dtd">
<svg width="305pt" height="52pt" viewBox="0 0 305 52" version="1.1" xmlns="http://www.w3.org/2000/svg">
<path fill="#ffffff" d=" M 32.41 4.55 C 39.00 3.70 45.97 4.33 52.71 4.27 C 44.45 18.06 36.63 32.11 28.72 46.10 C 22.23 46.13 15.75 46.09 9.26 46.12 C 2.91 37.88 -0.19 26.77 2.28 16.52 C 2.98 13.05 4.38 9.78 5.90 6.60 C 9.90 13.83 14.20 20.90 18.06 28.20 C 18.30 28.16 18.78 28.08 19.02 28.03 C 23.37 20.15 27.81 12.29 32.41 4.55 Z" />
<path fill="#ffffff" d=" M 59.70 19.52 C 62.80 15.73 63.86 10.33 67.60 7.10 C 73.78 19.55 72.56 35.24 63.76 46.14 C 57.33 46.09 50.91 46.09 44.48 46.14 C 46.71 42.76 48.64 39.19 50.59 35.64 C 47.91 35.69 45.23 35.70 42.56 35.55 C 46.01 30.41 48.72 24.83 51.95 19.55 C 54.53 19.57 57.12 19.73 59.70 19.52 Z" />
<path fill="#ffffff" d=" M 138.09 14.20 C 143.32 13.07 149.44 15.29 151.73 20.35 C 154.26 26.14 153.51 34.14 148.03 38.00 C 144.12 40.62 138.69 40.73 134.59 38.46 C 125.64 33.07 127.27 16.28 138.09 14.20 Z" />
<path fill="#ffffff" d=" M 155.49 13.88 C 156.17 13.94 157.54 14.06 158.22 14.12 C 160.99 21.64 163.35 29.32 166.02 36.88 C 168.65 29.31 171.03 21.64 173.78 14.12 C 174.46 14.06 175.83 13.94 176.51 13.88 C 173.34 22.55 170.48 31.33 167.35 40.01 C 166.65 40.01 165.27 39.99 164.58 39.98 C 161.56 31.28 158.60 22.55 155.49 13.88 Z" />
<path fill="#ffffff" d=" M 179.80 14.00 C 180.47 14.00 181.80 14.00 182.47 14.00 C 182.47 17.66 182.47 21.33 182.46 24.99 C 187.49 25.00 192.51 25.01 197.54 24.99 C 197.53 21.33 197.53 17.66 197.54 14.00 C 198.20 14.00 199.53 14.00 200.20 14.00 C 200.20 22.67 200.20 31.33 200.20 40.00 C 199.53 40.00 198.20 40.00 197.54 40.00 C 197.53 35.67 197.53 31.34 197.54 27.01 C 192.51 27.00 187.49 27.00 182.46 27.01 C 182.47 31.34 182.47 35.67 182.47 40.00 C 181.80 40.00 180.47 40.00 179.80 40.00 C 179.80 31.33 179.80 22.67 179.80 14.00 Z" />
<path fill="#1D2026" d=" M 137.44 16.58 C 141.87 14.81 147.68 16.74 149.48 21.33 C 151.26 25.89 151.08 31.82 147.54 35.50 C 143.26 39.85 134.73 38.47 132.46 32.65 C 130.24 27.17 131.24 18.97 137.44 16.58 Z" />
</svg>
