
<svg width="21px" height="22px" viewBox="15 14 21 22" version="1.1" xmlns="http://www.w3.org/2000/svg" xmlns:xlink="http://www.w3.org/1999/xlink">
    <!-- Generator: Sketch 39.1 (31720) - http://www.bohemiancoding.com/sketch -->
    <desc>Created with Sketch.</desc>
    <defs></defs>
    <g id="efounders" stroke="none" stroke-width="1" fill="none" fill-rule="evenodd" transform="translate(15.000000, 14.000000)">
        <path d="M7.7,9.3 C7.5,9.4 7.4,9.7 7.4,9.9 L7.4,12.1 C7.4,12.3 7.6,12.6 7.7,12.7 L9.7,13.8 C9.9,13.9 10.2,13.9 10.4,13.8 C10.4,13.8 19.2,8.8 19.4,8.6 C19.8,8.4 20,7.9 20.1,7.5 L20.1,6.7 C20.1,5.9 19.5,4.9 18.8,4.5 L11.4,0.3 C10.7,-0.1 9.5,-0.1 8.8,0.3 L1.4,4.5 C0.7,4.9 0.1,5.9 0.1,6.7 L0.1,15.2 C0.1,16 0.7,17 1.4,17.4 L8.8,21.6 C9.4,22 10.5,22 11.2,21.7 L19,17.2 C19.6,16.8 20,16 20.1,15.2 L20.1,11.7 C20.1,11.6 20.1,11.5 20,11.4 C19.8,11 19.3,10.9 19,11.1 L10.7,15.8 C10.4,16 9.8,16 9.5,15.8 L6,13.8 C5.7,13.6 5.4,13.2 5.4,12.8 L5.4,8.6 C5.4,8.3 5.7,7.9 5.9,7.7 L9.5,5.6 C9.8,5.5 10.3,5.5 10.6,5.6 L11.3,6 C11.4,6.1 11.5,6.3 11.5,6.4 C11.5,6.6 11.4,6.8 11.2,6.9 L7.7,9.3 L7.7,9.3 Z" id="blue" fill="#FFFFFF"></path>
    </g>
</svg>