<?xml version="1.0" encoding="UTF-8" standalone="no"?>
<svg width="39px" height="39px" viewBox="0 0 39 39" version="1.1" xmlns="http://www.w3.org/2000/svg" xmlns:xlink="http://www.w3.org/1999/xlink">
    <!-- Generator: Sketch 3.8.2 (29753) - http://www.bohemiancoding.com/sketch -->
    <title>Slice 1</title>
    <desc>Created with Sketch.</desc>
    <defs></defs>
    <g id="Page-1" stroke="none" stroke-width="1" fill="none" fill-rule="evenodd">
        <path d="M21.268,9.701 C24.196,9.701 26.313,10.716 28.283,12.396 C28.516,12.629 28.544,12.976 28.312,13.207 C28.051,13.468 27.732,13.758 27.501,14.019 C27.24,14.308 27.066,14.28 26.748,13.99 C25.27,12.686 23.182,11.729 21.24,11.729 C16.66,11.729 13.181,15.556 13.181,20.049 C13.181,24.514 16.66,28.428 21.24,28.428 C24.429,28.428 26.458,27.211 26.458,27.211 L26.458,23.152 L23.125,23.152 C22.807,23.152 22.574,22.919 22.574,22.63 L22.574,21.557 C22.574,21.239 22.807,21.006 23.125,21.006 L28.141,21.006 C28.43,21.006 28.663,21.267 28.663,21.557 L28.663,28.196 C28.663,28.342 28.547,28.572 28.43,28.66 C28.43,28.66 25.473,30.573 21.27,30.573 C15.472,30.573 10.805,25.964 10.805,20.166 C10.802,14.369 15.469,9.701 21.268,9.701 L21.268,9.701 L21.268,9.701 Z" id="Shape" fill="#FFF"></path>
    </g>
</svg>