
<svg width="53px" height="32px" viewBox="9 5 53 32" version="1.1" xmlns="http://www.w3.org/2000/svg" xmlns:xlink="http://www.w3.org/1999/xlink">
    <!-- Generator: Sketch 39.1 (31720) - http://www.bohemiancoding.com/sketch -->
    <desc>Created with Sketch.</desc>
    <defs></defs>
    <g id="ovh" stroke="none" stroke-width="1" fill="none" fill-rule="evenodd" transform="translate(9.000000, 5.000000)">
        <g id="Page-1" fill="#FFFFFF">
            <path d="M22.9567191,0.341711759 C27.8402275,-0.305619129 33.0053343,0.174167294 38,0.128473349 C31.8789409,10.630465 26.083943,21.3304638 20.2222508,31.9847687 C15.4128471,32.0076157 10.610854,31.977153 5.8014504,32 C1.09579355,25.7246982 -1.20145624,17.2637027 0.628933112,9.45765379 C1.14766694,6.81502064 2.18513459,4.32470063 3.31152804,1.90292155 C6.27572133,7.40904192 9.46222911,12.7933118 12.3226756,18.3527418 C12.5005272,18.3222791 12.8562304,18.2613539 13.034082,18.2232756 C16.2576422,12.2221375 19.5478968,6.23623067 22.9567191,0.341711759 L22.9567191,0.341711759 L22.9567191,0.341711759 Z" id="Shape"></path>
            <path d="M44.048724,12.2259221 C46.4087616,9.41060451 47.2157422,5.39933402 50.0630134,3 C54.7678625,12.248207 53.8390735,23.9031762 47.139612,32 C42.2444372,31.9628586 37.3568755,31.9628586 32.4617007,32 C34.1594052,29.4892418 35.6287189,26.8373463 37.1132587,24.2003074 C35.0729681,24.2374488 33.0326775,24.244877 31,24.1334529 C33.6264935,20.3153176 35.6896231,16.1703381 38.14863,12.248207 C40.1127903,12.2630635 42.0845637,12.381916 44.048724,12.2259221 L44.048724,12.2259221 L44.048724,12.2259221 Z" id="Shape"></path>
        </g>
    </g>
</svg>
